<?xml version="1.0" encoding="UTF-8" standalone="no"?>
<!-- Created with Inkscape (http://www.inkscape.org/) -->

<svg
   width="11.32091mm"
   height="11.125262mm"
   viewBox="0 0 11.32091 11.125262"
   version="1.1"
   id="svg535371"
   inkscape:version="1.2-dev (ac43753, 2021-08-09)"
   sodipodi:docname="FreeSurfaceLogoButtonDownDark.svg"
   xmlns:inkscape="http://www.inkscape.org/namespaces/inkscape"
   xmlns:sodipodi="http://sodipodi.sourceforge.net/DTD/sodipodi-0.dtd"
   xmlns:xlink="http://www.w3.org/1999/xlink"
   xmlns="http://www.w3.org/2000/svg"
   xmlns:svg="http://www.w3.org/2000/svg">
  <sodipodi:namedview
     id="namedview535373"
     pagecolor="#505050"
     bordercolor="#ffffff"
     borderopacity="1"
     inkscape:pageshadow="0"
     inkscape:pageopacity="0"
     inkscape:pagecheckerboard="1"
     inkscape:document-units="mm"
     showgrid="false"
     fit-margin-top="0"
     fit-margin-left="0"
     fit-margin-right="0"
     fit-margin-bottom="0"
     inkscape:zoom="4"
     inkscape:cx="-0.875"
     inkscape:cy="0"
     inkscape:window-width="2006"
     inkscape:window-height="922"
     inkscape:window-x="2174"
     inkscape:window-y="61"
     inkscape:window-maximized="0"
     inkscape:current-layer="layer2" />
  <defs
     id="defs535368">
    <linearGradient
       inkscape:collect="always"
       id="linearGradient180424">
      <stop
         style="stop-color:#fb450b;stop-opacity:1;"
         offset="0"
         id="stop180420" />
      <stop
         style="stop-color:#fb450b;stop-opacity:0;"
         offset="1"
         id="stop180422" />
    </linearGradient>
    <linearGradient
       inkscape:collect="always"
       id="linearGradient121706">
      <stop
         style="stop-color:#1c1715;stop-opacity:1;"
         offset="0"
         id="stop121702" />
      <stop
         style="stop-color:#4f4441;stop-opacity:1;"
         offset="1"
         id="stop121704" />
    </linearGradient>
    <linearGradient
       inkscape:collect="always"
       id="linearGradient121648">
      <stop
         style="stop-color:#181212;stop-opacity:1;"
         offset="0"
         id="stop121644" />
      <stop
         style="stop-color:#493131;stop-opacity:1;"
         offset="1"
         id="stop121646" />
    </linearGradient>
    <linearGradient
       inkscape:collect="always"
       xlink:href="#linearGradient121648"
       id="linearGradient121650"
       x1="4.1252494"
       y1="4.4861078"
       x2="4.1402264"
       y2="-2.934514"
       gradientUnits="userSpaceOnUse"
       gradientTransform="matrix(1.4340991,0,0,1.4340991,-1.780595,-0.3225449)" />
    <linearGradient
       inkscape:collect="always"
       xlink:href="#linearGradient121706"
       id="linearGradient121708"
       x1="4.1252494"
       y1="4.4861078"
       x2="4.1402264"
       y2="-2.934514"
       gradientUnits="userSpaceOnUse"
       gradientTransform="matrix(1.4340991,0,0,1.4340991,-1.780595,-0.3225449)" />
    <linearGradient
       inkscape:collect="always"
       xlink:href="#linearGradient121648"
       id="linearGradient133673"
       gradientUnits="userSpaceOnUse"
       x1="4.1252494"
       y1="4.4861078"
       x2="4.1402264"
       y2="-2.934514"
       gradientTransform="matrix(1.4340991,0,0,1.4340991,33.72204,27.076981)" />
    <linearGradient
       inkscape:collect="always"
       xlink:href="#linearGradient121706"
       id="linearGradient133675"
       gradientUnits="userSpaceOnUse"
       x1="4.1252494"
       y1="4.4861078"
       x2="4.1402264"
       y2="-2.934514"
       gradientTransform="matrix(1.4340991,0,0,1.4340991,33.72204,27.076981)" />
    <linearGradient
       inkscape:collect="always"
       xlink:href="#linearGradient168370"
       id="linearGradient168372"
       x1="5.5702643"
       y1="9.0203352"
       x2="5.5028677"
       y2="16.848534"
       gradientUnits="userSpaceOnUse"
       gradientTransform="matrix(0.27403425,0,0,0.27403425,16.360653,-0.50963499)" />
    <linearGradient
       inkscape:collect="always"
       id="linearGradient168370">
      <stop
         style="stop-color:#000000;stop-opacity:1;"
         offset="0"
         id="stop168366" />
      <stop
         style="stop-color:#fb450b;stop-opacity:0.5;"
         offset="1"
         id="stop168368" />
    </linearGradient>
    <linearGradient
       inkscape:collect="always"
       xlink:href="#linearGradient180424"
       id="linearGradient180426"
       x1="-61.683907"
       y1="-9.6993847"
       x2="-62.351254"
       y2="34.675617"
       gradientUnits="userSpaceOnUse"
       gradientTransform="matrix(0.21356648,0,0,0.21356648,17.239844,-1.9374546)" />
    <linearGradient
       inkscape:collect="always"
       xlink:href="#linearGradient180424"
       id="linearGradient180931"
       gradientUnits="userSpaceOnUse"
       gradientTransform="matrix(0.21356648,0,0,0.21356648,52.74248,25.639262)"
       x1="-61.683907"
       y1="-9.6993847"
       x2="-62.351254"
       y2="34.675617" />
  </defs>
  <g
     inkscape:label="Layer 1"
     inkscape:groupmode="layer"
     id="layer1"
     transform="translate(-33.943997,-22.579915)"
     style="display:inline">
    <ellipse
       style="fill:#272220;fill-opacity:1;fill-rule:evenodd;stroke:none;stroke-width:0.308208;stroke-linecap:round;stroke-linejoin:round;stroke-miterlimit:4;stroke-dasharray:none;stroke-dashoffset:19.6815;stroke-opacity:1;paint-order:markers stroke fill"
       id="ellipse130042-5"
       ry="5.5625467"
       rx="5.6603904"
       cy="28.142462"
       cx="39.604389" />
    <ellipse
       style="fill:#0e0c0c;fill-opacity:1;fill-rule:evenodd;stroke:none;stroke-width:0.284317;stroke-linecap:round;stroke-linejoin:round;stroke-miterlimit:4;stroke-dasharray:none;stroke-dashoffset:19.6815;stroke-opacity:1;paint-order:markers stroke fill"
       id="ellipse132357-0"
       ry="5.1313667"
       rx="5.2216258"
       cy="28.479586"
       cx="39.593288" />
    <ellipse
       style="display:inline;fill:url(#linearGradient133673);fill-opacity:1;fill-rule:evenodd;stroke:url(#linearGradient133675);stroke-width:0.276781;stroke-linecap:round;stroke-linejoin:round;stroke-miterlimit:4;stroke-dasharray:none;stroke-dashoffset:19.6815;stroke-opacity:1;paint-order:markers stroke fill"
       id="path121434-3"
       ry="4.9953685"
       rx="5.0832357"
       cy="28.142462"
       cx="39.604389" />
    <path
       id="ellipse130042-5-0"
       style="display:inline;fill:#272220;fill-opacity:1;fill-rule:evenodd;stroke:none;stroke-width:0.308208;stroke-linecap:round;stroke-linejoin:round;stroke-miterlimit:4;stroke-dasharray:none;stroke-dashoffset:19.6815;stroke-opacity:1;paint-order:markers stroke fill"
       d="m 39.604452,22.579915 a 5.6603902,5.5625466 0 0 0 -5.660455,5.562631 5.6603902,5.5625466 0 0 0 5.660455,5.562631 5.6603902,5.5625466 0 0 0 5.660456,-5.562631 5.6603902,5.5625466 0 0 0 -5.660456,-5.562631 z m -0.0014,0.428351 c 2.880889,0 5.223952,2.29931 5.223953,5.13428 0,2.83497 -2.343063,5.13428 -5.223953,5.13428 -2.88089,0 -5.220988,-2.29931 -5.220987,-5.13428 0,-2.834968 2.340097,-5.13428 5.220987,-5.13428 z" />
    <path
       style="display:inline;fill:#141110;fill-opacity:1;fill-rule:evenodd;stroke:none;stroke-width:0.308208;stroke-linecap:round;stroke-linejoin:round;stroke-miterlimit:4;stroke-dasharray:none;stroke-dashoffset:19.6815;stroke-opacity:1;paint-order:markers stroke fill"
       d="m 39.60297,23.008266 c -2.880889,0 -5.220987,2.299312 -5.220987,5.13428 0,0.0438 3.71e-4,0.08764 0.0014,0.131177 0.06327,-2.781006 2.376835,-5.017928 5.218021,-5.017928 2.856867,0 5.183845,2.261525 5.22247,5.063875 0.002,-0.05883 0.003,-0.117811 0.003,-0.177119 9e-6,-2.83497 -2.343054,-5.13428 -5.223942,-5.13428 z"
       id="path138034-5" />
    <path
       id="path174207-9"
       style="display:inline;fill:url(#linearGradient180931);fill-opacity:1;fill-rule:evenodd;stroke-width:0.155786;stroke-linecap:round;stroke-linejoin:round;stroke-dashoffset:19.6815;paint-order:markers stroke fill"
       d="m 40.12579,23.612467 c -0.929321,0.02158 0.427595,2.506454 -0.661138,2.577814 -1.123853,0.07366 3.4e-5,-2.742508 -1.087854,-2.45101 -1.087888,0.291499 1.293759,2.168528 0.283643,2.666662 -1.010116,0.498134 -1.049429,-2.533895 -1.942955,-1.848268 -0.893526,0.685626 2.024831,1.5083 1.282233,2.355071 -0.742598,0.846771 -1.939182,-1.939343 -2.502315,-0.963969 -0.563132,0.975374 2.448053,0.618679 2.086027,1.685173 -0.362025,1.066494 -2.533419,-1.04989 -2.680426,0.06674 -0.147006,1.11663 2.498313,-0.365108 2.571975,0.758745 0.07366,1.123854 -2.742508,-3.4e-5 -2.451009,1.087855 0.291499,1.087888 2.168109,-1.293759 2.666244,-0.283643 0.498134,1.010116 -2.533477,1.049428 -1.847851,1.942954 0.685626,0.893526 1.508301,-2.025248 2.355071,-1.28265 0.846771,0.742598 -1.939343,1.939183 -0.963969,2.502315 0.975373,0.563132 0.618262,-2.448053 1.684756,-2.086027 1.066494,0.362026 -1.049473,2.533836 0.06716,2.680843 1.11663,0.147007 -0.365525,-2.498313 0.758328,-2.571975 1.123854,-0.07366 -3.4e-5,2.742508 1.087855,2.45101 1.087888,-0.291499 -1.293759,-2.168527 -0.283643,-2.666662 1.010116,-0.498134 1.049428,2.533895 1.942954,1.848268 0.893526,-0.685626 -2.024831,-1.5083 -1.282233,-2.355071 0.742598,-0.846771 1.939183,1.939343 2.502315,0.963969 0.563132,-0.975374 -2.448053,-0.618262 -2.086027,-1.684756 0.362026,-1.066494 2.533836,1.049473 2.680843,-0.06716 0.147007,-1.11663 -2.49873,0.365525 -2.572392,-0.758328 -0.07366,-1.123853 2.742925,3.4e-5 2.451427,-1.087854 -0.291499,-1.087889 -2.168528,1.293759 -2.666662,0.283643 -0.498134,-1.010117 2.533895,-1.049429 1.848268,-1.942955 -0.685627,-0.893526 -1.5083,2.024831 -2.355071,1.282233 -0.84677,-0.742598 1.939343,-1.939182 0.963969,-2.502315 -0.975374,-0.563132 -0.618679,2.448053 -1.685173,2.086027 -1.066494,-0.362026 1.049473,-2.533836 -0.06716,-2.680843 -0.03489,-0.0046 -0.06721,-0.0065 -0.09719,-0.0058 z m -1.007349,3.492979 c 0.230153,0 0.392894,0.06754 0.498461,0.149747 0.05278,0.0411 0.09072,0.08652 0.116377,0.128057 0.02566,0.04153 0.03963,0.0782 0.03963,0.113457 0,0.07003 -0.05006,0.135443 -0.115126,0.193962 -0.06507,0.05852 -0.148219,0.1072 -0.236508,0.1072 -0.06568,0 -0.118411,-0.03156 -0.157672,-0.07133 -0.03926,-0.03977 -0.0694,-0.08833 -0.103864,-0.133896 -0.06894,-0.09114 -0.144743,-0.171854 -0.324938,-0.171854 -0.17274,0 -0.314782,0.07854 -0.416287,0.21148 -0.09399,0.123095 -0.140343,0.300818 -0.149747,0.494707 h 1.204648 v 0.07258 0.03963 h -1.204648 c 0.01524,0.266519 0.106285,0.498445 0.208144,0.671566 0.05403,0.09184 0.106662,0.169159 0.148078,0.23192 0.0207,0.03138 0.03899,0.05834 0.05214,0.08342 0.01315,0.02508 0.02378,0.04679 0.02378,0.07383 0,0.03419 -0.01741,0.06168 -0.03795,0.08676 -0.02054,0.02508 -0.04659,0.04836 -0.0755,0.06966 -0.05781,0.0426 -0.12078,0.07717 -0.181447,0.07717 -0.05725,0 -0.105448,-0.03804 -0.14349,-0.09135 -0.03804,-0.05331 -0.06935,-0.124659 -0.09636,-0.211481 -0.054,-0.173643 -0.08634,-0.405603 -0.08634,-0.654047 0,-0.331795 0.05799,-0.695691 0.21732,-0.980654 0.15933,-0.284963 0.425933,-0.490535 0.821313,-0.490535 z m 1.409455,0 c 0.318516,0 0.479273,0.194712 0.479273,0.37833 0,0.151064 -0.113473,0.288648 -0.288231,0.288648 -0.07195,0 -0.128872,-0.02424 -0.171855,-0.0584 -0.04299,-0.03415 -0.07308,-0.07601 -0.102611,-0.115125 -0.02954,-0.03911 -0.05781,-0.0757 -0.09302,-0.100944 -0.03521,-0.02525 -0.07754,-0.04088 -0.141822,-0.04088 -0.05916,0 -0.115144,0.0152 -0.156003,0.05214 -0.04086,0.03694 -0.07091,0.09672 -0.07091,0.203139 0,0.155164 0.06313,0.253297 0.163928,0.332863 0.100803,0.07957 0.241237,0.13638 0.384587,0.193962 0.143351,0.05758 0.289134,0.114648 0.403357,0.204807 0.114223,0.09016 0.19563,0.217601 0.19563,0.395849 -0.0017,0.174411 -0.100806,0.370809 -0.254027,0.503049 -0.14841,0.121272 -0.340774,0.190625 -0.528076,0.190625 -0.156644,0 -0.306415,-0.04787 -0.419208,-0.137233 -0.112791,-0.08937 -0.187705,-0.220841 -0.187705,-0.37833 0,-0.113574 0.03762,-0.210855 0.105532,-0.277386 0.06791,-0.06653 0.164276,-0.102612 0.272798,-0.102612 0.115354,0 0.192051,0.04505 0.234839,0.108868 0.04279,0.06382 0.05603,0.139675 0.06966,0.211064 0.01363,0.07139 0.02766,0.137647 0.05965,0.181448 0.03199,0.0438 0.0789,0.07258 0.183117,0.07258 0.108361,0 0.184979,-0.0406 0.242765,-0.09802 0.06697,-0.07954 0.09462,-0.165102 0.1072,-0.267792 0,-0.151715 -0.06318,-0.244817 -0.163929,-0.321601 -0.100744,-0.07678 -0.240964,-0.132085 -0.384586,-0.189373 -0.143622,-0.05729 -0.28944,-0.116213 -0.403774,-0.211064 -0.114334,-0.09485 -0.193962,-0.229165 -0.193962,-0.417956 0,-0.191422 0.07914,-0.343901 0.201887,-0.445903 0.122748,-0.102003 0.286107,-0.154753 0.455498,-0.154753 z" />
  </g>
  <g
     inkscape:groupmode="layer"
     id="layer2"
     inkscape:label="Layer 2"
     style="display:none"
     transform="translate(1.5586391,4.8196103)">
    <ellipse
       style="fill:#272220;fill-opacity:1;fill-rule:evenodd;stroke:none;stroke-width:0.308208;stroke-linecap:round;stroke-linejoin:round;stroke-miterlimit:4;stroke-dasharray:none;stroke-dashoffset:19.6815;stroke-opacity:1;paint-order:markers stroke fill"
       id="ellipse130042"
       ry="5.5625467"
       rx="5.6603904"
       cy="0.74293691"
       cx="4.1017518" />
    <ellipse
       style="fill:#0e0c0c;fill-opacity:1;fill-rule:evenodd;stroke:none;stroke-width:0.284317;stroke-linecap:round;stroke-linejoin:round;stroke-miterlimit:4;stroke-dasharray:none;stroke-dashoffset:19.6815;stroke-opacity:1;paint-order:markers stroke fill"
       id="ellipse132357"
       ry="5.1313667"
       rx="5.2216258"
       cy="1.0800613"
       cx="4.0906529" />
    <ellipse
       style="fill:url(#linearGradient121650);fill-opacity:1;fill-rule:evenodd;stroke:url(#linearGradient121708);stroke-width:0.276781;stroke-linecap:round;stroke-linejoin:round;stroke-miterlimit:4;stroke-dasharray:none;stroke-dashoffset:19.6815;stroke-opacity:1;paint-order:markers stroke fill"
       id="path121434"
       ry="4.9953685"
       rx="5.0832357"
       cy="0.74293691"
       cx="4.1017518" />
    <path
       id="path174207"
       style="fill:url(#linearGradient180426);fill-opacity:1;fill-rule:evenodd;stroke-width:0.155786;stroke-linecap:round;stroke-linejoin:round;stroke-dashoffset:19.6815;paint-order:markers stroke fill"
       d="m 4.6231542,-3.9642505 c -0.929321,0.021585 0.4275947,2.5064548 -0.6611383,2.5778141 -1.123853,0.073661 3.4e-5,-2.7425077 -1.0878544,-2.4510091 -1.0878879,0.2914988 1.2937594,2.1685271 0.2836432,2.6666612 C 2.1476887,-0.67265023 2.1083757,-3.7046785 1.2148505,-3.019052 0.32132439,-2.3334255 3.239681,-1.5107517 2.4970831,-0.66398103 1.7544853,0.1827896 0.55790089,-2.6033239 -0.00523174,-1.62795 -0.56836441,-0.65257621 2.4428212,-1.009271 2.0807952,0.05722295 1.7187699,1.1237169 -0.45262362,-0.99266691 -0.59963054,0.12396248 -0.74663746,1.2405919 1.8986824,-0.24114581 1.972344,0.88270741 2.0460073,2.0065606 -0.77016435,0.88267345 -0.47866487,1.9705617 -0.1871662,3.0584499 1.6894443,0.67680262 2.1875787,1.6869186 2.6857131,2.6970347 -0.34589823,2.7363472 0.3397281,3.629873 1.0253544,4.5233988 1.8480286,1.6046249 2.6947988,2.3472229 3.5415699,3.0898206 0.75545587,4.2864056 1.73083,4.8495379 2.7062034,5.4126704 2.3490923,2.4014848 3.4155858,2.7635107 4.4820799,3.1255366 2.3661133,5.2973469 3.4827432,5.4443539 4.5993727,5.591361 3.117218,2.9460406 4.2410714,2.8723794 5.3649246,2.7987185 4.2410374,5.6148873 5.3289257,5.3233885 6.4168139,5.0318897 4.0351666,3.1548617 5.0452826,2.6567275 6.0553987,2.1585933 6.0947112,5.1906217 6.988237,4.5049952 7.8817628,3.8193686 4.963406,2.9966947 5.7060039,2.1499242 6.4486017,1.3031533 7.6451867,4.0892668 8.208319,3.1138932 8.7714511,2.1385193 5.7602656,2.4956313 6.1222916,1.4291373 6.4843175,0.36264335 8.6561279,2.47861 8.8031349,1.3619807 8.9501423,0.24535114 6.3044046,1.7275059 6.2307434,0.6036529 6.1570825,-0.52020049 8.9736684,0.60368665 8.6821696,-0.48420145 8.3906708,-1.5720896 6.5136425,0.80955769 6.0155083,-0.20055847 5.5173741,-1.2106745 8.5494026,-1.2499871 7.863776,-2.1435129 7.1781495,-3.0370387 6.3554756,-0.11868182 5.508705,-0.86127973 4.6619347,-1.6038777 7.448048,-2.8004624 6.4726741,-3.3635948 c -0.9753738,-0.5631323 -0.618679,2.44805317 -1.685173,2.0860273 -1.066494,-0.362026 1.0494729,-2.5338362 -0.067157,-2.6808433 -0.034894,-0.00459 -0.067211,-0.00654 -0.09719,-0.00584 z m -1.0073497,3.49297984 c 0.2301531,0 0.3928946,0.067539 0.498461,0.14974679 0.052779,0.0411037 0.090717,0.0865252 0.116377,0.12805647 0.02566,0.0415313 0.039626,0.0782044 0.039626,0.11345719 0,0.07002629 -0.050059,0.13544344 -0.1151255,0.19396176 -0.065068,0.0585183 -0.1482188,0.10720038 -0.2365083,0.10720038 -0.065677,0 -0.1184108,-0.0315556 -0.157672,-0.0713279 C 3.7217064,0.11005172 3.6915655,0.06149813 3.6570994,0.01592787 3.5881606,-0.07521265 3.5123563,-0.1559264 3.3321613,-0.1559264 c -0.1727406,0 -0.3147826,0.07853792 -0.4162871,0.21148085 -0.093987,0.12309478 -0.1403437,0.30081731 -0.1497473,0.49470683 h 1.2046483 v 0.0725791 0.0396266 H 2.7661269 c 0.015239,0.26651942 0.1062854,0.49844492 0.2081443,0.67156632 0.054033,0.091841 0.1066617,0.1691584 0.1480781,0.23192 0.020704,0.031381 0.038987,0.058345 0.052144,0.083424 0.013149,0.025079 0.02378,0.046794 0.02378,0.07383 0,0.034191 -0.017411,0.061679 -0.037954,0.086761 -0.020543,0.025082 -0.046591,0.048361 -0.075504,0.06966 -0.05781,0.042598 -0.12078,0.077167 -0.1814477,0.077167 -0.057253,0 -0.1054476,-0.038042 -0.14349,-0.09135 -0.038042,-0.053308 -0.069353,-0.1246592 -0.096356,-0.211481 -0.054,-0.1736434 -0.086344,-0.4056031 -0.086344,-0.65404731 0,-0.33179522 0.057988,-0.69569071 0.2173204,-0.98065387 0.1593302,-0.28496314 0.425933,-0.49053551 0.821313,-0.49053551 z m 1.4094555,0 c 0.3185158,0 0.4792731,0.19471195 0.4792731,0.37832969 0,0.15106364 -0.1134728,0.28864842 -0.2882313,0.28864842 -0.071947,0 -0.128872,-0.0242427 -0.1718544,-0.0583971 -0.042986,-0.0341544 -0.073077,-0.07601198 -0.1026118,-0.1151257 -0.029541,-0.03911362 -0.057809,-0.07569576 -0.093018,-0.10094352 -0.035209,-0.02524787 -0.077538,-0.04087795 -0.1418215,-0.04087795 -0.059164,0 -0.1151444,0.0152027 -0.1560036,0.05214022 -0.040859,0.03693754 -0.070911,0.09671996 -0.070911,0.20313841 0,0.1551637 0.063126,0.25329727 0.1639289,0.33286339 0.1008024,0.0795664 0.2412362,0.13637992 0.3845867,0.19396172 0.1433512,0.057582 0.2891336,0.11464781 0.4033571,0.20480683 0.1142229,0.0901597 0.19563,0.21760135 0.19563,0.39584895 C 5.6258568,1.4375341 5.5267783,1.6339324 5.3735568,1.7661719 5.2251472,1.8874437 5.0327826,1.9567967 4.8454805,1.9567967 4.6888365,1.9567967 4.5390657,1.90893 4.4262727,1.8195635 4.3134823,1.7301968 4.2385679,1.598723 4.2385679,1.4412337 c 0,-0.1135734 0.037624,-0.210855 0.1055319,-0.2773861 0.067908,-0.066531 0.1642765,-0.1026119 0.2727977,-0.1026119 0.1153549,0 0.1920511,0.045049 0.2348398,0.1088687 0.042789,0.06382 0.056026,0.1396746 0.069659,0.2110637 0.013633,0.071389 0.02766,0.1376466 0.059648,0.1814482 0.03199,0.043802 0.078901,0.072579 0.1831166,0.072579 0.1083608,0 0.1849791,-0.040602 0.2427651,-0.098024 C 5.473897,1.4576343 5.501542,1.372069 5.5141263,1.2693791 5.5141263,1.117664 5.4509413,1.0245618 5.3501974,0.94777803 5.2494533,0.87099443 5.1092334,0.81569291 4.965611,0.75840499 4.8219886,0.70111729 4.6761714,0.64219214 4.5618369,0.54734129 4.447503,0.45249023 4.3678752,0.31817613 4.3678752,0.12938495 c 0,-0.19142195 0.079138,-0.34390134 0.201887,-0.44590344 0.1227479,-0.10200217 0.2861072,-0.15475228 0.4554978,-0.15475217 z" />
  </g>
  <g
     inkscape:groupmode="layer"
     id="layer6"
     inkscape:label="Layer 5"
     style="display:none"
     transform="translate(1.7134097,1.6837986)">
    <text
       xml:space="preserve"
       style="font-size:2.90019px;line-height:1.25;font-family:Pipa;-inkscape-font-specification:Pipa;letter-spacing:0px;word-spacing:0px;display:inline;fill:url(#linearGradient168372);fill-opacity:1;stroke-width:0.0725048"
       x="16.297365"
       y="4.0732489"
       id="text158413"><tspan
         sodipodi:role="line"
         id="tspan158411"
         style="fill:url(#linearGradient168372);fill-opacity:1;stroke-width:0.0725048"
         x="16.297365"
         y="4.0732489">FS</tspan></text>
    <g
       aria-label="FS"
       id="g180302"
       style="font-size:3.99089px;line-height:1.25;font-family:Pipa;-inkscape-font-specification:Pipa;letter-spacing:0px;word-spacing:0px;display:inline;stroke:#000000;stroke-width:0.0997721"
       transform="translate(-11.211719,-2.4804687)">
      <g
         id="g180296">
        <path
           id="path180294"
           style="color:#000000;-inkscape-font-specification:Pipa;fill:#000000;stroke:none;stroke-width:0.377091;-inkscape-stroke:none"
           d="m -63.792969,6.8652344 c -1.851322,0 -3.099658,0.9625685 -3.845703,2.296875 -0.746045,1.3343066 -1.017578,3.0382046 -1.017578,4.5917966 0,1.163311 0.151439,2.249435 0.404297,3.0625 0.126425,0.406533 0.273043,0.740626 0.451172,0.990235 0.178129,0.249607 0.403797,0.427734 0.671875,0.427734 0.284069,0 0.578908,-0.161867 0.849609,-0.361328 0.135345,-0.09973 0.257289,-0.208727 0.353516,-0.326172 0.09623,-0.117445 0.177734,-0.246157 0.177734,-0.40625 0,-0.126595 -0.04972,-0.228273 -0.111328,-0.345703 -0.06161,-0.11743 -0.147196,-0.24369 -0.244141,-0.390625 -0.193927,-0.293874 -0.440342,-0.655904 -0.693359,-1.085938 -0.476939,-0.810621 -0.903244,-1.896585 -0.974609,-3.144531 h 5.640625 v -0.185547 -0.339843 h -5.640625 c 0.04403,-0.907864 0.261095,-1.7400299 0.701172,-2.3164068 0.475286,-0.6224896 1.14038,-0.9902343 1.949218,-0.9902343 0.843742,0 1.198687,0.3779326 1.521485,0.8046875 0.161385,0.2133774 0.302503,0.4407239 0.486328,0.6269531 0.183836,0.186229 0.430756,0.3339845 0.738281,0.3339845 0.413405,0 0.802743,-0.2279481 1.107422,-0.5019532 0.304668,-0.2740052 0.539062,-0.5803134 0.539062,-0.9082032 0,-0.1650671 -0.0654,-0.3367846 -0.185546,-0.53125 -0.120152,-0.1944654 -0.297775,-0.407146 -0.544922,-0.5996094 -0.494302,-0.3849281 -1.25632,-0.7011718 -2.333985,-0.7011718 z"
           transform="matrix(0.26458333,0,0,0.26458333,-1.7134097,-1.6837986)" />
      </g>
      <g
         id="g180300">
        <path
           id="path180298"
           style="color:#000000;-inkscape-font-specification:Pipa;fill:#000000;stroke:none;stroke-width:0.377091;-inkscape-stroke:none"
           d="m -57.193359,6.8652344 c -0.793149,0 -1.55806,0.2469963 -2.132813,0.7246094 -0.574756,0.4776131 -0.945312,1.1915798 -0.945312,2.0878906 0,0.8839926 0.372855,1.5129026 0.908203,1.9570316 0.535358,0.444128 1.21813,0.720038 1.890625,0.988281 0.672495,0.268244 1.329058,0.527187 1.800781,0.886719 0.471719,0.359531 0.767578,0.795471 0.767578,1.505859 -0.05893,0.480834 -0.188355,0.881481 -0.501953,1.253906 -0.270576,0.268872 -0.629332,0.458985 -1.136719,0.458985 -0.487975,0 -0.707631,-0.134744 -0.857422,-0.339844 -0.149782,-0.205096 -0.21546,-0.515336 -0.279297,-0.84961 -0.06384,-0.334272 -0.125819,-0.689451 -0.326171,-0.988281 -0.200353,-0.298828 -0.559477,-0.509765 -1.09961,-0.509765 -0.508142,0 -0.959372,0.168944 -1.277343,0.480468 -0.317972,0.311524 -0.494141,0.767033 -0.494141,1.298828 0,0.737424 0.350789,1.353036 0.878906,1.771485 0.52814,0.418449 1.229421,0.642578 1.962891,0.642578 0.87702,0 1.777745,-0.324738 2.472656,-0.892578 0.71744,-0.619196 1.181371,-1.538808 1.189453,-2.355469 0,-0.834623 -0.381178,-1.431355 -0.916015,-1.853516 -0.534838,-0.42216 -1.217447,-0.689363 -1.888672,-0.958984 -0.671222,-0.26962 -1.328787,-0.535643 -1.800782,-0.908203 -0.471998,-0.372559 -0.767578,-0.832058 -0.767578,-1.5585938 0,-0.4982921 0.140712,-0.7782161 0.332032,-0.9511718 0.191319,-0.1729557 0.45344,-0.2441406 0.730468,-0.2441406 0.301002,0 0.4992,0.073186 0.664063,0.1914062 0.164863,0.1182195 0.297239,0.2895109 0.435547,0.4726562 0.138293,0.1831454 0.279197,0.3791386 0.480468,0.5390626 0.20126,0.1599239 0.467803,0.2734375 0.804688,0.2734374 0.818286,0 1.349609,-0.6442244 1.349609,-1.3515624 0,-0.8597685 -0.752727,-1.7714844 -2.24414,-1.7714844 z"
           transform="matrix(0.26458333,0,0,0.26458333,-1.7134097,-1.6837986)"
           sodipodi:nodetypes="ssssssccssssssscsccssssssscssss" />
      </g>
    </g>
  </g>
</svg>
