<?xml version="1.0" encoding="UTF-8" standalone="no"?>
<!-- Created with Inkscape (http://www.inkscape.org/) -->

<svg
   width="7.8899798mm"
   height="7.8429661mm"
   viewBox="0 0 7.8899799 7.8429664"
   version="1.1"
   id="svg589461"
   inkscape:version="1.2-dev (ac43753, 2021-08-09)"
   sodipodi:docname="VektronixPortBorderlessDark.svg"
   xmlns:inkscape="http://www.inkscape.org/namespaces/inkscape"
   xmlns:sodipodi="http://sodipodi.sourceforge.net/DTD/sodipodi-0.dtd"
   xmlns:xlink="http://www.w3.org/1999/xlink"
   xmlns="http://www.w3.org/2000/svg"
   xmlns:svg="http://www.w3.org/2000/svg">
  <sodipodi:namedview
     id="namedview589463"
     pagecolor="#505050"
     bordercolor="#ffffff"
     borderopacity="1"
     inkscape:pageshadow="0"
     inkscape:pageopacity="0"
     inkscape:pagecheckerboard="1"
     inkscape:document-units="mm"
     showgrid="false"
     fit-margin-top="0"
     fit-margin-left="0"
     fit-margin-right="0"
     fit-margin-bottom="0"
     height="10.58324mm"
     inkscape:zoom="8.5468655"
     inkscape:cx="-7.0786185"
     inkscape:cy="17.842799"
     inkscape:window-width="2266"
     inkscape:window-height="1041"
     inkscape:window-x="1975"
     inkscape:window-y="19"
     inkscape:window-maximized="0"
     inkscape:current-layer="layer1" />
  <defs
     id="defs589458">
    <linearGradient
       inkscape:collect="always"
       id="linearGradient67753">
      <stop
         style="stop-color:#4a3e39;stop-opacity:1;"
         offset="0"
         id="stop67749" />
      <stop
         style="stop-color:#564c4a;stop-opacity:1;"
         offset="1"
         id="stop67751" />
    </linearGradient>
    <linearGradient
       inkscape:collect="always"
       xlink:href="#linearGradient67753"
       id="linearGradient103789"
       gradientUnits="userSpaceOnUse"
       gradientTransform="matrix(0,0.80333364,-0.80333364,0,-124.37327,18.056783)"
       x1="6.4768987"
       y1="135.10484"
       x2="10.429114"
       y2="135.10484" />
  </defs>
  <g
     inkscape:label="Layer 1"
     inkscape:groupmode="layer"
     id="layer1"
     transform="translate(236.85186,-20.933967)">
    <path
       inkscape:connector-curvature="0"
       id="path161670-1"
       d="m -232.90686,28.166308 c -1.83879,0 -3.33437,-1.485069 -3.33437,-3.310878 0,-1.825808 1.49558,-3.310838 3.33437,-3.310838 1.83878,0 3.33436,1.48503 3.33436,3.310838 0,1.825809 -1.49558,3.310878 -3.33436,3.310878"
       style="fill:#32250d;fill-opacity:1;fill-rule:nonzero;stroke:#272220;stroke-width:1.22125;stroke-miterlimit:4;stroke-dasharray:none;stroke-opacity:1" />
    <path
       id="path40527-3-7"
       style="color:#000000;display:inline;fill:#7d4326;fill-opacity:1;stroke-width:1;stroke-dasharray:15.78, 15.78;stroke-dashoffset:5.2074;-inkscape-stroke:none;paint-order:markers stroke fill"
       sodipodi:type="inkscape:offset"
       inkscape:radius="0.10873053"
       inkscape:original="M 94.894531 105.25391 C 94.884451 105.25396 94.873601 105.25473 94.863281 105.25586 C 94.704181 105.27426 94.564512 105.30129 94.423828 105.33789 C 94.267036 105.37869 94.189232 105.54239 94.248047 105.69336 L 94.529297 106.41016 C 94.572997 106.52234 94.691212 106.59218 94.810547 106.58984 C 94.827617 106.58951 94.844458 106.58798 94.861328 106.58398 C 94.877778 106.58098 94.893556 106.57722 94.910156 106.57422 C 95.056259 106.54992 95.177313 106.43147 95.175781 106.2832 L 95.167969 105.5332 C 95.166369 105.37723 95.045712 105.25314 94.894531 105.25391 z M 95.541016 105.26172 C 95.295462 105.26572 95.28537 105.38433 95.283203 105.5293 L 95.271484 106.28516 C 95.269184 106.43978 95.39358 106.56058 95.546875 106.58008 C 96.440412 106.6937 97.15553 107.38902 97.289062 108.27344 C 97.301622 108.35664 97.308514 108.46997 97.308594 108.58008 C 97.309052 108.67618 97.304462 108.77107 97.294922 108.84375 C 97.272442 109.016 97.227813 109.18195 97.164062 109.33789 C 97.105593 109.48093 97.148605 109.65037 97.283203 109.72656 L 97.939453 110.09766 C 97.981513 110.12146 98.027917 110.13337 98.072266 110.13477 C 98.169826 110.13777 98.262681 110.089 98.308594 109.99805 L 98.375 109.85156 L 98.433594 109.69727 L 98.484375 109.54297 L 98.527344 109.38281 L 98.566406 109.22266 L 98.59375 109.05469 L 98.613281 108.89062 L 98.623047 108.72266 L 98.626953 108.58008 L 98.626953 108.53906 L 98.619141 108.36719 L 98.607422 108.20117 L 98.582031 108.03516 L 98.552734 107.86914 L 98.511719 107.70898 L 98.464844 107.54883 L 98.410156 107.39648 L 98.349609 107.24414 L 98.279297 107.09766 L 98.203125 106.95508 L 98.121094 106.81641 L 98.035156 106.68359 L 97.939453 106.55273 L 97.837891 106.42969 L 97.732422 106.31055 L 97.621094 106.19727 L 97.505859 106.08789 L 97.382812 105.98438 L 97.253906 105.88867 L 97.123047 105.79688 L 96.986328 105.71289 L 96.845703 105.63477 L 96.703125 105.56055 L 96.552734 105.49609 L 96.400391 105.43945 L 96.246094 105.38867 L 96.085938 105.3457 L 95.923828 105.31055 L 95.759766 105.2832 L 95.59375 105.26367 C 95.57523 105.26288 95.557386 105.26146 95.541016 105.26172 z M 93.888672 105.55078 C 93.850592 105.55138 93.812696 105.56023 93.775391 105.57812 C 93.631699 105.64893 93.508917 105.72106 93.388672 105.80273 C 93.254655 105.89373 93.237665 106.07676 93.34375 106.19922 L 93.847656 106.7793 C 93.903966 106.8443 93.987772 106.87595 94.072266 106.87305 C 94.122966 106.87105 94.1744 106.85843 94.21875 106.83203 C 94.23317 106.82403 94.247019 106.81474 94.261719 106.80664 C 94.391193 106.73474 94.465286 106.58251 94.414062 106.44336 L 94.154297 105.73828 C 94.111197 105.62117 94.002898 105.54898 93.888672 105.55078 z M 93.058594 106.16211 C 92.988234 106.16111 92.917745 106.18834 92.863281 106.24414 C 92.751418 106.35877 92.660341 106.46886 92.574219 106.58594 C 92.478239 106.71644 92.523202 106.89063 92.664062 106.9707 L 93.332031 107.35156 C 93.376881 107.37706 93.428335 107.38892 93.478516 107.38672 C 93.562156 107.38272 93.644177 107.3434 93.699219 107.27734 C 93.709939 107.26444 93.721282 107.25088 93.732422 107.23828 C 93.830492 107.1273 93.848612 106.95981 93.753906 106.8457 L 93.273438 106.26758 C 93.216988 106.19958 93.138334 106.16337 93.058594 106.16211 z M 92.503906 107.02344 C 92.406346 107.02044 92.313491 107.07117 92.267578 107.16211 L 92.201172 107.30859 L 92.140625 107.46094 L 92.089844 107.61719 L 92.046875 107.77734 L 92.009766 107.9375 L 91.982422 108.10352 L 91.962891 108.26953 L 91.953125 108.4375 L 91.949219 108.58008 L 91.947266 108.61914 L 91.955078 108.79102 L 91.96875 108.95898 L 91.992188 109.125 L 92.023438 109.29102 L 92.064453 109.44922 L 92.111328 109.60938 L 92.164062 109.76367 L 92.226562 109.91406 L 92.296875 110.06055 L 92.373047 110.20508 L 92.455078 110.34375 L 92.541016 110.47656 L 92.636719 110.60742 L 92.736328 110.73047 L 92.84375 110.84766 L 92.955078 110.96289 L 93.070312 111.07031 L 93.193359 111.17578 L 93.320312 111.27148 L 93.453125 111.36133 L 93.587891 111.44727 L 93.730469 111.52539 L 93.873047 111.59766 L 94.021484 111.66211 L 94.175781 111.7207 L 94.330078 111.77148 L 94.488281 111.81445 L 94.652344 111.84961 L 94.814453 111.87695 L 94.982422 111.89648 C 95.000942 111.89728 95.016843 111.89674 95.033203 111.89648 C 95.278758 111.89248 95.290802 111.77388 95.292969 111.62891 L 95.304688 110.875 C 95.306988 110.72038 95.182591 110.59762 95.029297 110.57812 C 94.13576 110.46451 93.420644 109.76919 93.287109 108.88477 C 93.274589 108.80187 93.267698 108.68987 93.267578 108.58008 L 93.267578 108.57812 C 93.267121 108.48212 93.27181 108.38908 93.28125 108.31641 C 93.30373 108.14416 93.348358 107.97821 93.412109 107.82227 C 93.470579 107.67923 93.425617 107.50976 93.291016 107.43359 L 92.634766 107.06055 C 92.592706 107.03675 92.548253 107.02484 92.503906 107.02344 z M 97.097656 109.77344 C 97.014016 109.77744 96.931994 109.81675 96.876953 109.88281 C 96.866233 109.89571 96.85489 109.90927 96.84375 109.92188 C 96.74568 110.03285 96.72756 110.20034 96.822266 110.31445 L 97.300781 110.89062 C 97.40704 111.01865 97.596699 111.0351 97.712891 110.91602 C 97.824757 110.80139 97.915834 110.6913 98.001953 110.57422 C 98.097933 110.44372 98.052969 110.26757 97.912109 110.1875 L 97.242188 109.80664 C 97.202938 109.78434 97.161086 109.77434 97.117188 109.77344 C 97.110888 109.77331 97.103926 109.77316 97.097656 109.77344 z M 96.503906 110.28516 C 96.453206 110.28716 96.401771 110.30172 96.357422 110.32812 C 96.343002 110.33612 96.3272 110.34542 96.3125 110.35352 C 96.183029 110.42542 96.110889 110.57765 96.162109 110.7168 L 96.421875 111.41992 C 96.479345 111.57607 96.651541 111.65354 96.800781 111.58008 C 96.944471 111.50928 97.067255 111.43714 97.1875 111.35547 C 97.321514 111.26447 97.338507 111.0834 97.232422 110.96094 L 96.728516 110.37891 C 96.672206 110.31391 96.588401 110.28226 96.503906 110.28516 z M 95.765625 110.56836 C 95.748555 110.56869 95.731714 110.57217 95.714844 110.57617 C 95.698394 110.57917 95.682616 110.58098 95.666016 110.58398 C 95.519913 110.60828 95.398859 110.72868 95.400391 110.87695 L 95.408203 111.62695 C 95.409903 111.79332 95.547646 111.9234 95.712891 111.9043 C 95.87199 111.8859 96.011657 111.85887 96.152344 111.82227 C 96.309136 111.78147 96.384986 111.61777 96.326172 111.4668 L 96.046875 110.74805 C 96.003175 110.63587 95.88496 110.56797 95.765625 110.57031 L 95.765625 110.56836 z "
       transform="matrix(0.97700015,0,0,0.97700015,-326.00232,-81.226577)"
       d="m 94.894531,105.14453 c -0.01523,8e-5 -0.02976,0.002 -0.04297,0.004 -0.163957,0.019 -0.310047,0.0463 -0.455078,0.084 -0.149287,0.0388 -0.243889,0.1655 -0.265625,0.30664 -0.06981,-0.0582 -0.151892,-0.0991 -0.24414,-0.0977 -0.05378,8.4e-4 -0.107618,0.0148 -0.158203,0.0391 a 0.10874141,0.10874141 0 0 0 -0.002,0 c -0.147924,0.0729 -0.274348,0.14814 -0.398437,0.23242 -0.125158,0.085 -0.171427,0.23129 -0.148437,0.36914 -0.03887,-0.0136 -0.07812,-0.0286 -0.119141,-0.0293 -0.09944,-0.001 -0.200522,0.0385 -0.275391,0.11524 -0.115563,0.11842 -0.210302,0.23317 -0.298828,0.35351 -0.09078,0.12344 -0.08283,0.27817 -0.01172,0.4004 -0.12481,0.008 -0.24503,0.0732 -0.304687,0.1914 a 0.10874141,0.10874141 0 0 0 -0.002,0.004 l -0.06641,0.14648 a 0.10874141,0.10874141 0 0 0 -0.002,0.004 l -0.06055,0.15234 a 0.10874141,0.10874141 0 0 0 -0.002,0.008 l -0.05078,0.15625 a 0.10874141,0.10874141 0 0 0 -0.002,0.006 l -0.04297,0.16016 a 0.10874141,0.10874141 0 0 0 0,0.002 l -0.03711,0.16016 a 0.10874141,0.10874141 0 0 0 -0.002,0.008 l -0.02734,0.16602 a 0.10874141,0.10874141 0 0 0 0,0.004 l -0.01953,0.16602 a 0.10874141,0.10874141 0 0 0 -0.002,0.008 l -0.0098,0.16797 a 0.10874141,0.10874141 0 0 0 0,0.002 l -0.0039,0.14258 -0.002,0.0371 a 0.10874141,0.10874141 0 0 0 0,0.0117 l 0.0078,0.17188 a 0.10874141,0.10874141 0 0 0 0.002,0.004 l 0.01367,0.16797 a 0.10874141,0.10874141 0 0 0 0,0.006 l 0.02344,0.16601 a 0.10874141,0.10874141 0 0 0 0,0.004 l 0.03125,0.16602 a 0.10874141,0.10874141 0 0 0 0.002,0.008 l 0.04102,0.1582 a 0.10874141,0.10874141 0 0 0 0.002,0.004 l 0.04687,0.16015 a 0.10874141,0.10874141 0 0 0 0,0.004 l 0.05273,0.1543 a 0.10874141,0.10874141 0 0 0 0.0039,0.006 l 0.0625,0.15039 a 0.10874141,0.10874141 0 0 0 0.002,0.006 l 0.07031,0.14648 a 0.10874141,0.10874141 0 0 0 0.002,0.004 l 0.07617,0.14453 a 0.10874141,0.10874141 0 0 0 0.002,0.004 l 0.08203,0.13867 a 0.10874141,0.10874141 0 0 0 0.002,0.004 l 0.08594,0.13282 a 0.10874141,0.10874141 0 0 0 0.0039,0.006 l 0.0957,0.13086 a 0.10874141,0.10874141 0 0 0 0.0039,0.004 l 0.09961,0.12305 a 0.10874141,0.10874141 0 0 0 0.0039,0.006 l 0.107422,0.11719 a 0.10874141,0.10874141 0 0 0 0.002,0.002 l 0.111328,0.11523 a 0.10874141,0.10874141 0 0 0 0.0039,0.004 l 0.115235,0.10742 a 0.10874141,0.10874141 0 0 0 0.0039,0.002 l 0.123047,0.10547 a 0.10874141,0.10874141 0 0 0 0.0039,0.004 l 0.126953,0.0957 a 0.10874141,0.10874141 0 0 0 0.0059,0.004 l 0.132812,0.0898 a 0.10874141,0.10874141 0 0 0 0.002,0.002 l 0.134766,0.0859 a 0.10874141,0.10874141 0 0 0 0.0059,0.004 l 0.142578,0.0781 a 0.10874141,0.10874141 0 0 0 0.0039,0.002 l 0.142578,0.0723 a 0.10874141,0.10874141 0 0 0 0.0059,0.002 l 0.148438,0.0644 a 0.10874141,0.10874141 0 0 0 0.0039,0.002 l 0.154297,0.0586 a 0.10874141,0.10874141 0 0 0 0.0059,0.002 l 0.154297,0.0508 a 0.10874141,0.10874141 0 0 0 0.0039,0.002 l 0.158203,0.043 a 0.10874141,0.10874141 0 0 0 0.0059,0 l 0.164062,0.0352 a 0.10874141,0.10874141 0 0 0 0.0059,0.002 l 0.162109,0.0273 a 0.10874141,0.10874141 0 0 0 0.0059,0 l 0.167969,0.0195 a 0.10874141,0.10874141 0 0 0 0.0078,0.002 c 0.02331,0.001 0.04155,2.4e-4 0.05664,0 0.140247,-0.002 0.249865,-0.0435 0.308594,-0.12695 0.01168,-0.0166 0.01212,-0.0339 0.01953,-0.0508 0.07526,0.1208 0.208512,0.20126 0.361328,0.1836 0.163957,-0.019 0.310046,-0.0463 0.455079,-0.084 0.149268,-0.0388 0.242404,-0.16572 0.263671,-0.30664 0.111304,0.0918 0.266238,0.12556 0.40625,0.0566 0.147929,-0.0729 0.274352,-0.14814 0.398438,-0.23242 0.125938,-0.0855 0.170993,-0.2326 0.146484,-0.37109 0.134626,0.047 0.288634,0.0285 0.396485,-0.082 0.115566,-0.11842 0.210305,-0.23317 0.298828,-0.35352 0.09104,-0.12378 0.08302,-0.2796 0.01172,-0.40234 0.123831,-0.008 0.244788,-0.0708 0.304688,-0.18945 a 0.10874141,0.10874141 0 0 0 0.002,-0.004 l 0.06641,-0.14649 a 0.10874141,0.10874141 0 0 0 0.002,-0.006 l 0.05859,-0.15429 a 0.10874141,0.10874141 0 0 0 0.002,-0.006 l 0.05078,-0.1543 a 0.10874141,0.10874141 0 0 0 0.002,-0.006 l 0.04297,-0.16015 a 0.10874141,0.10874141 0 0 0 0,-0.002 l 0.03906,-0.16015 a 0.10874141,0.10874141 0 0 0 0.002,-0.008 l 0.02734,-0.16796 a 0.10874141,0.10874141 0 0 0 0,-0.004 l 0.01953,-0.16406 a 0.10874141,0.10874141 0 0 0 0.002,-0.008 l 0.0098,-0.16796 a 0.10874141,0.10874141 0 0 0 0,-0.002 l 0.0039,-0.14258 a 0.10874141,0.10874141 0 0 0 0,-0.004 v -0.041 a 0.10874141,0.10874141 0 0 0 0,-0.006 l -0.0078,-0.17187 a 0.10874141,0.10874141 0 0 0 0,-0.002 l -0.01172,-0.16602 a 0.10874141,0.10874141 0 0 0 -0.002,-0.008 l -0.02539,-0.16602 a 0.10874141,0.10874141 0 0 0 0,-0.004 l -0.0293,-0.16601 a 0.10874141,0.10874141 0 0 0 -0.002,-0.008 l -0.04102,-0.16016 a 0.10874141,0.10874141 0 0 0 -0.002,-0.004 l -0.04687,-0.16015 a 0.10874141,0.10874141 0 0 0 -0.002,-0.006 l -0.05469,-0.15234 a 0.10874141,0.10874141 0 0 0 0,-0.004 l -0.06055,-0.15235 a 0.10874141,0.10874141 0 0 0 -0.0039,-0.006 l -0.07031,-0.14649 a 0.10874141,0.10874141 0 0 0 -0.002,-0.004 l -0.07617,-0.14258 a 0.10874141,0.10874141 0 0 0 -0.002,-0.004 l -0.08203,-0.13867 a 0.10874141,0.10874141 0 0 0 -0.002,-0.004 l -0.08594,-0.13281 a 0.10874141,0.10874141 0 0 0 -0.0039,-0.006 l -0.0957,-0.13086 a 0.10874141,0.10874141 0 0 0 -0.0039,-0.004 l -0.101563,-0.12305 a 0.10874141,0.10874141 0 0 0 -0.002,-0.004 l -0.105469,-0.11914 a 0.10874141,0.10874141 0 0 0 -0.0039,-0.004 l -0.111328,-0.11329 a 0.10874141,0.10874141 0 0 0 -0.0039,-0.002 l -0.115234,-0.10937 a 0.10874141,0.10874141 0 0 0 -0.0039,-0.006 l -0.123047,-0.10352 a 0.10874141,0.10874141 0 0 0 -0.0059,-0.004 l -0.128907,-0.0957 a 0.10874141,0.10874141 0 0 0 -0.002,-0.002 l -0.130859,-0.0918 a 0.10874141,0.10874141 0 0 0 -0.0059,-0.002 l -0.136719,-0.084 a 0.10874141,0.10874141 0 0 0 -0.0039,-0.004 l -0.140624,-0.0781 a 0.10874141,0.10874141 0 0 0 -0.002,0 l -0.142578,-0.0742 a 0.10874141,0.10874141 0 0 0 -0.0078,-0.004 l -0.150391,-0.0645 a 0.10874141,0.10874141 0 0 0 -0.0059,-0.002 l -0.152344,-0.0566 a 0.10874141,0.10874141 0 0 0 -0.0039,-0.002 l -0.154297,-0.0508 a 0.10874141,0.10874141 0 0 0 -0.0059,-0.002 l -0.160157,-0.043 a 0.10874141,0.10874141 0 0 0 -0.0039,0 l -0.162109,-0.0352 a 0.10874141,0.10874141 0 0 0 -0.0059,-0.002 l -0.164062,-0.0273 a 0.10874141,0.10874141 0 0 0 -0.0039,0 l -0.166016,-0.0195 a 0.10874141,0.10874141 0 0 0 -0.0098,-0.002 c -0.01595,-6.8e-4 -0.03468,-0.002 -0.05859,-0.002 -0.140252,0.002 -0.248509,0.0451 -0.30664,0.12891 -0.01157,0.0167 -0.01224,0.0339 -0.01953,0.0508 -0.06769,-0.10947 -0.18177,-0.18819 -0.31836,-0.1875 z m 0.328125,1.33789 c 0.06593,0.10989 0.179149,0.18837 0.310547,0.20508 0.845673,0.10753 1.522205,0.76549 1.648438,1.60156 0.01126,0.0746 0.0175,0.18539 0.01758,0.29102 4.4e-4,0.0923 -0.0032,0.18496 -0.01172,0.25 -0.02125,0.16282 -0.06475,0.31941 -0.125,0.4668 -0.04967,0.12152 -0.03536,0.25729 0.02539,0.36914 -0.11264,0.007 -0.220406,0.0571 -0.294922,0.14648 -0.01056,0.0127 -0.02147,0.026 -0.03125,0.0371 -0.08654,0.0979 -0.121619,0.23162 -0.09961,0.35742 -0.05187,-0.0203 -0.107001,-0.0331 -0.162109,-0.0312 -0.06857,0.003 -0.136264,0.0223 -0.197266,0.0586 -0.01532,0.009 -0.03089,0.0168 -0.04297,0.0234 -0.120718,0.067 -0.201948,0.18996 -0.216797,0.32422 -0.07374,-0.0684 -0.162693,-0.11526 -0.263672,-0.11719 a 0.10874141,0.10874141 0 0 0 -0.01563,-0.006 c -0.02799,5.5e-4 -0.05017,0.006 -0.06836,0.01 -0.01197,0.002 -0.02789,0.004 -0.04883,0.008 -0.12283,0.0209 -0.229017,0.0977 -0.292968,0.20117 -0.06573,-0.11044 -0.17856,-0.19024 -0.310547,-0.20703 -0.845672,-0.10752 -1.522202,-0.76548 -1.648438,-1.60156 -0.01124,-0.0744 -0.01746,-0.18374 -0.01758,-0.28906 v -0.002 c -4.38e-4,-0.0921 0.0032,-0.18257 0.01172,-0.24804 0.02125,-0.16283 0.06475,-0.31942 0.125,-0.4668 0.04988,-0.12203 0.03602,-0.25745 -0.02539,-0.36914 0.112649,-0.007 0.220409,-0.0571 0.294922,-0.14648 0.01056,-0.0127 0.02149,-0.0261 0.03125,-0.0371 0.08698,-0.0984 0.122369,-0.23303 0.09961,-0.35938 0.05187,0.0203 0.107002,0.0331 0.16211,0.0312 0.06581,-0.003 0.134253,-0.0191 0.197266,-0.0566 0.01814,-0.0102 0.0323,-0.0186 0.04102,-0.0234 0.121028,-0.0672 0.20388,-0.19102 0.21875,-0.32617 0.07747,0.0726 0.171946,0.12515 0.279297,0.12305 0.02218,-4.3e-4 0.0476,-0.003 0.07422,-0.01 0.016,-0.003 0.03008,-0.006 0.04102,-0.008 0.122686,-0.0204 0.23041,-0.0961 0.294922,-0.19922 z" />
    <path
       id="path40525-1-1"
       style="color:#000000;display:inline;fill:#161111;fill-opacity:1;stroke-width:0.977;stroke-dasharray:15.4171, 15.4171;stroke-dashoffset:5.08763;-inkscape-stroke:none;paint-order:markers stroke fill"
       d="m -233.29133,21.605383 c -0.01,4.9e-5 -0.0202,9.18e-4 -0.0303,0.002 -0.15543,0.01798 -0.29169,0.04504 -0.42913,0.0808 -0.1532,0.03986 -0.22862,0.200363 -0.17116,0.347861 l 0.27314,0.700773 c 0.0427,0.109599 0.15856,0.176475 0.27516,0.174189 v 9.77e-4 c 0.0167,-3.23e-4 0.033,-0.002 0.0494,-0.0059 v -5.08e-4 c 0.0161,-0.0029 0.0318,-0.0059 0.048,-0.0088 0.14274,-0.02374 0.2605,-0.139897 0.25901,-0.284757 l -0.008,-0.733082 c -0.002,-0.152383 -0.11887,-0.2744 -0.26657,-0.273648 z m 0.63262,0.0088 c -0.23991,0.0039 -0.25083,0.119887 -0.25295,0.261523 l -0.0111,0.737626 c -0.002,0.151063 0.11933,0.270248 0.2691,0.289299 0.87298,0.111007 1.57149,0.790432 1.70194,1.654491 0.0123,0.08129 0.0186,0.191307 0.0187,0.298884 4.5e-4,0.09389 -0.004,0.18648 -0.0131,0.257488 -0.022,0.168289 -0.0655,0.330314 -0.12773,0.482668 -0.0571,0.13975 -0.0144,0.305234 0.11713,0.379672 l 0.6412,0.363004 c 0.0411,0.02325 0.0849,0.03498 0.12823,0.03635 0.0953,0.0029 0.18689,-0.04494 0.23174,-0.1338 l 0.0652,-0.143385 0.0575,-0.14995 0.05,-0.151464 0.0419,-0.156506 0.0368,-0.157023 0.0268,-0.162573 0.0197,-0.162065 0.01,-0.164087 0.004,-0.13934 9.7e-4,-0.0384 -0.008,-0.168122 -0.0131,-0.163579 -0.0233,-0.162065 -0.0298,-0.161557 -0.0399,-0.156017 -0.0454,-0.156506 -0.053,-0.14995 -0.0606,-0.147927 -0.0682,-0.142887 -0.0743,-0.140355 -0.0797,-0.134797 -0.0848,-0.130772 -0.0934,-0.126717 -0.0979,-0.121177 -0.10451,-0.11511 -0.10805,-0.111583 -0.11359,-0.106015 -0.11916,-0.10149 -0.1252,-0.09438 -0.12875,-0.08832 -0.13278,-0.08226 -0.13784,-0.07679 -0.14035,-0.07122 -0.1454,-0.06311 -0.14945,-0.05608 -0.15147,-0.05051 -0.15499,-0.04191 -0.15904,-0.03429 -0.16005,-0.02726 -0.16257,-0.01866 c -0.0181,-7.72e-4 -0.035,-7.62e-4 -0.051,-5.08e-4 z m -1.6146,0.282226 c -0.0372,5.86e-4 -0.0751,0.0098 -0.11159,0.02726 -0.14038,0.06917 -0.26016,0.139838 -0.37764,0.21963 -0.13092,0.08891 -0.14757,0.266076 -0.044,0.385719 l 0.49175,0.567999 c 0.055,0.06351 0.13808,0.09477 0.22064,0.09184 0.0495,-0.002 0.0991,-0.01563 0.14237,-0.04143 0.0141,-0.0078 0.0285,-0.0168 0.0429,-0.02472 0.1265,-0.07025 0.19747,-0.218477 0.14743,-0.354426 l -0.25295,-0.68815 c -0.0421,-0.114417 -0.1474,-0.185533 -0.259,-0.183774 z m -0.81185,0.597269 c -0.0688,-9.77e-4 -0.13712,0.02472 -0.19034,0.07924 -0.10929,0.111984 -0.19859,0.219327 -0.28273,0.333724 -0.0938,0.127508 -0.0503,0.299411 0.0873,0.377659 l 0.65382,0.371583 c 0.0438,0.02491 0.0928,0.03547 0.14187,0.03332 0.0817,-0.0039 0.16283,-0.0425 0.2166,-0.10703 0.0104,-0.0126 0.0209,-0.02501 0.0318,-0.03742 0.0958,-0.108418 0.11373,-0.272222 0.0212,-0.383707 l -0.46853,-0.563944 c -0.0551,-0.06644 -0.13314,-0.102273 -0.21104,-0.103504 z m 1.75041,0.002 a 0.11309284,0.11309284 0 0 1 0.1131,0.113088 0.11309284,0.11309284 0 0 1 -0.1131,0.113098 0.11309284,0.11309284 0 0 1 -0.11308,-0.113098 0.11309284,0.11309284 0 0 1 0.11308,-0.113088 z m -0.72601,0.272632 a 0.11309284,0.11309284 0 0 1 0.11309,0.113098 0.11309284,0.11309284 0 0 1 -0.11309,0.113088 0.11309284,0.11309284 0 0 1 -0.11309,-0.113088 0.11309284,0.11309284 0 0 1 0.11309,-0.113098 z m -0.57455,0.498817 a 0.11309284,0.11309284 0 0 1 0.11309,0.113098 0.11309284,0.11309284 0 0 1 -0.11309,0.113088 0.11309284,0.11309284 0 0 1 -0.1131,-0.113088 0.11309284,0.11309284 0 0 1 0.1131,-0.113098 z m -0.99108,0.06868 c -0.0954,-0.0029 -0.18688,0.04494 -0.23174,0.13379 l -0.0652,0.143384 -0.0575,0.14995 -0.05,0.151465 -0.0419,0.156505 -0.0368,0.157024 -0.0268,0.162563 -0.0197,0.162075 -0.01,0.164077 -0.004,0.138343 -9.7e-4,0.03937 0.008,0.168122 0.0131,0.16358 0.0233,0.162064 0.0298,0.161567 0.0399,0.155997 0.0454,0.156516 0.053,0.14995 0.0606,0.147927 0.0682,0.142887 0.0743,0.140356 0.0797,0.134796 0.0848,0.130772 0.0934,0.126717 0.0979,0.121177 0.10452,0.11511 0.10804,0.111574 0.11359,0.106033 0.11916,0.101481 0.12521,0.09438 0.12874,0.08832 0.13278,0.08275 0.13784,0.07621 0.14036,0.07171 0.1454,0.06311 0.14944,0.05608 0.15147,0.05002 0.155,0.04191 0.15904,0.03429 0.16004,0.02726 0.16257,0.01915 c 0.0181,7.82e-4 0.035,7.62e-4 0.051,5.08e-4 0.23988,-0.0039 0.25083,-0.119888 0.25295,-0.261523 l 0.0111,-0.737626 c 0.002,-0.151063 -0.11933,-0.270248 -0.2691,-0.289299 -0.87298,-0.111007 -1.57149,-0.790413 -1.70195,-1.654491 -0.0122,-0.08099 -0.0186,-0.191121 -0.0187,-0.298386 v -4.98e-4 c -4.5e-4,-0.09379 0.004,-0.186509 0.0131,-0.257488 0.022,-0.168289 0.0654,-0.330314 0.12773,-0.482668 0.0572,-0.13975 0.0144,-0.305254 -0.11713,-0.379662 l -0.6412,-0.363014 c -0.0411,-0.02325 -0.0849,-0.03498 -0.12824,-0.03634 z m 0.61292,0.538698 a 0.11309285,0.11309285 0 0 1 0.1131,0.113097 0.11309285,0.11309285 0 0 1 -0.1131,0.113088 0.11309285,0.11309285 0 0 1 -0.11309,-0.113088 0.11309285,0.11309285 0 0 1 0.11309,-0.113097 z m 4.21221,1.717595 a 0.11309285,0.11309285 0 0 1 0.009,0 0.11309285,0.11309285 0 0 1 0.11309,0.113098 0.11309285,0.11309285 0 0 1 -0.11309,0.113088 0.11309285,0.11309285 0 0 1 -0.11309,-0.113088 0.11309285,0.11309285 0 0 1 0.10451,-0.113098 z m -0.31909,0.429148 c -0.006,-1.27e-4 -0.012,2.44e-4 -0.0182,5.08e-4 -0.0817,0.0039 -0.16282,0.0425 -0.21659,0.10703 -0.0104,0.0126 -0.0209,0.02501 -0.0318,0.03732 -0.0958,0.108437 -0.11373,0.272231 -0.0212,0.383716 l 0.46853,0.563944 c 0.10381,0.125086 0.28785,0.140581 0.40137,0.02423 0.1093,-0.111994 0.19859,-0.219327 0.28273,-0.333733 0.0938,-0.127489 0.0503,-0.299422 -0.0873,-0.37764 l -0.65382,-0.371593 c -0.0383,-0.02179 -0.0808,-0.03292 -0.1237,-0.0338 z m -0.0403,0.204984 a 0.11309285,0.11309285 0 0 1 0.008,0 0.11309285,0.11309285 0 0 1 0.1131,0.113098 0.11309285,0.11309285 0 0 1 -0.1131,0.113087 0.11309285,0.11309285 0 0 1 -0.11309,-0.113087 0.11309285,0.11309285 0 0 1 0.10501,-0.113098 z m -0.5589,0.295855 c -0.0495,0.002 -0.099,0.01563 -0.14237,0.04143 -0.0141,0.0078 -0.0285,0.01681 -0.0429,0.02472 -0.1265,0.07025 -0.19747,0.218477 -0.14743,0.354427 l 0.25295,0.68815 c 0.0562,0.152558 0.22477,0.228295 0.37058,0.156515 0.14039,-0.06917 0.26017,-0.140336 0.37765,-0.220128 0.13093,-0.08891 0.14757,-0.266086 0.044,-0.385729 l -0.49176,-0.567989 c -0.055,-0.06351 -0.13807,-0.09418 -0.22063,-0.09135 z m -0.004,0.194883 a 0.11309285,0.11309285 0 0 1 0.1131,0.113097 0.11309285,0.11309285 0 0 1 -0.1131,0.113088 0.11309285,0.11309285 0 0 1 -0.11309,-0.113088 0.11309285,0.11309285 0 0 1 0.11309,-0.113097 z m -0.71641,0.08226 c -0.0167,3.22e-4 -0.033,0.002 -0.0494,0.0059 v 4.98e-4 c -0.016,0.0029 -0.0317,0.0059 -0.048,0.0088 -0.14275,0.02374 -0.26051,0.139897 -0.25901,0.284757 l 0.008,0.733082 c 0.002,0.162544 0.13544,0.290286 0.29688,0.271626 0.15544,-0.01798 0.29169,-0.04504 0.42914,-0.0808 0.15319,-0.03986 0.22862,-0.200373 0.17115,-0.347861 l -0.27314,-0.700763 c -0.0427,-0.10961 -0.15856,-0.176476 -0.27515,-0.17419 z m -0.0263,0.180745 a 0.11309286,0.11309286 0 0 1 0.11308,0.113088 0.11309286,0.11309286 0 0 1 -0.11308,0.113097 0.11309286,0.11309286 0 0 1 -0.1131,-0.113097 0.11309286,0.11309286 0 0 1 0.1131,-0.113088 z" />
    <path
       inkscape:connector-curvature="0"
       id="path71070-87"
       d="m -232.90751,26.609683 c -0.97292,0 -1.76234,-0.789392 -1.76234,-1.762305 0,-0.972923 0.78942,-1.762315 1.76234,-1.762315 0.97291,0 1.76229,0.789392 1.76229,1.762315 0,0.972913 -0.78938,1.762305 -1.76229,1.762305"
       style="fill:none;fill-opacity:1;fill-rule:nonzero;stroke:#dca68b;stroke-width:0.150458;stroke-miterlimit:4;stroke-dasharray:none;stroke-opacity:1" />
    <rect
       style="fill:#dca68b;fill-opacity:1;fill-rule:evenodd;stroke:none;stroke-width:0.436802;stroke-miterlimit:4;stroke-dasharray:none;stroke-dashoffset:19.6815;stroke-opacity:1;paint-order:markers stroke fill"
       id="rect79632-7"
       width="0.64031738"
       height="0.35984319"
       x="-235.24925"
       y="24.623905" />
    <rect
       style="fill:#dca68b;fill-opacity:1;fill-rule:evenodd;stroke:none;stroke-width:0.436802;stroke-miterlimit:4;stroke-dasharray:none;stroke-dashoffset:19.6815;stroke-opacity:1;paint-order:markers stroke fill"
       id="rect79634-0"
       width="0.64031738"
       height="0.35984319"
       x="-231.2856"
       y="24.623905" />
    <path
       inkscape:connector-curvature="0"
       id="path161672-9"
       d="m -232.90751,26.523357 c -0.92527,0 -1.67601,-0.750727 -1.67601,-1.675979 0,-0.925261 0.75074,-1.675988 1.67601,-1.675988 0.92525,0 1.67596,0.750727 1.67596,1.675988 0,0.925252 -0.75071,1.675979 -1.67596,1.675979"
       style="fill:#616161;fill-opacity:1;fill-rule:nonzero;stroke:#2a2121;stroke-width:0.235606;stroke-miterlimit:4;stroke-dasharray:none;stroke-opacity:1" />
    <path
       inkscape:connector-curvature="0"
       id="path74224-9"
       d="m -232.90752,26.293142 c -0.79817,0 -1.44579,-0.647609 -1.44579,-1.445764 0,-0.798165 0.64762,-1.445774 1.44579,-1.445774 0.79816,0 1.44575,0.647609 1.44575,1.445774 0,0.798155 -0.64759,1.445764 -1.44575,1.445764"
       style="fill:url(#linearGradient103789);fill-opacity:1;fill-rule:nonzero;stroke:#1c1715;stroke-width:0.203243;stroke-miterlimit:4;stroke-dasharray:none;stroke-opacity:1" />
    <rect
       style="fill:#2a2121;fill-opacity:1;fill-rule:evenodd;stroke:none;stroke-width:0.436802;stroke-miterlimit:4;stroke-dasharray:none;stroke-dashoffset:19.6815;stroke-opacity:1;paint-order:markers stroke fill"
       id="rect75661-4"
       width="0.64031738"
       height="0.35984319"
       x="-235.24925"
       y="24.667459" />
    <rect
       style="fill:#2a2121;fill-opacity:1;fill-rule:evenodd;stroke:none;stroke-width:0.436802;stroke-miterlimit:4;stroke-dasharray:none;stroke-dashoffset:19.6815;stroke-opacity:1;paint-order:markers stroke fill"
       id="rect79630-35"
       width="0.64031738"
       height="0.35984319"
       x="-231.2856"
       y="24.667459" />
    <path
       inkscape:connector-curvature="0"
       id="path81983-0"
       d="m -232.90753,25.420115 c -0.3162,0 -0.57276,-0.256541 -0.57276,-0.572737 0,-0.316206 0.25656,-0.572746 0.57276,-0.572746 0.31619,0 0.57274,0.25654 0.57274,0.572746 0,0.316196 -0.25655,0.572737 -0.57274,0.572737"
       style="fill:#161616;fill-opacity:1;fill-rule:nonzero;stroke:#fa460d;stroke-width:0.516361;stroke-miterlimit:4;stroke-dasharray:none;stroke-opacity:1" />
  </g>
</svg>
