<?xml version="1.0" encoding="UTF-8" standalone="no"?>
<!-- Created with Inkscape (http://www.inkscape.org/) -->

<svg
   width="7.3927569mm"
   height="7.4765897mm"
   viewBox="0 0 7.3927569 7.4765897"
   version="1.1"
   id="svg537680"
   inkscape:version="1.2-dev (ac43753, 2021-08-09)"
   sodipodi:docname="VektronixSmallKnobCap.svg"
   xmlns:inkscape="http://www.inkscape.org/namespaces/inkscape"
   xmlns:sodipodi="http://sodipodi.sourceforge.net/DTD/sodipodi-0.dtd"
   xmlns:xlink="http://www.w3.org/1999/xlink"
   xmlns="http://www.w3.org/2000/svg"
   xmlns:svg="http://www.w3.org/2000/svg">
  <sodipodi:namedview
     id="namedview537682"
     pagecolor="#505050"
     bordercolor="#ffffff"
     borderopacity="1"
     inkscape:pageshadow="0"
     inkscape:pageopacity="0"
     inkscape:pagecheckerboard="1"
     inkscape:document-units="mm"
     showgrid="false"
     fit-margin-top="0"
     fit-margin-left="0"
     fit-margin-right="0"
     fit-margin-bottom="0"
     inkscape:zoom="12.087093"
     inkscape:cx="16.298377"
     inkscape:cy="17.828935"
     inkscape:window-width="1304"
     inkscape:window-height="1041"
     inkscape:window-x="1989"
     inkscape:window-y="27"
     inkscape:window-maximized="0"
     inkscape:current-layer="layer2" />
  <defs
     id="defs537677">
    <linearGradient
       inkscape:collect="always"
       xlink:href="#linearGradient11890"
       id="linearGradient123333"
       gradientUnits="userSpaceOnUse"
       gradientTransform="matrix(0.21310308,-0.24288981,0.24288981,0.21310308,1.47159,-6.908336)"
       x1="-29.74379"
       y1="26.902344"
       x2="-10.70153"
       y2="26.902344" />
    <linearGradient
       inkscape:collect="always"
       id="linearGradient11890">
      <stop
         style="stop-color:#e3dbdb;stop-opacity:1;"
         offset="0"
         id="stop11886" />
      <stop
         style="stop-color:#fff1f1;stop-opacity:1;"
         offset="1"
         id="stop11888" />
    </linearGradient>
  </defs>
  <g
     inkscape:label="Layer 1"
     inkscape:groupmode="layer"
     id="layer1"
     transform="translate(-96.120839,-90.124913)"
     style="display:none">
    <path
       style="color:#000000;fill:#b8b8b8;stroke-linecap:square;stroke-linejoin:bevel;stroke-dasharray:2.2, 1.1;-inkscape-stroke:none;paint-order:stroke markers fill"
       d="m 98.506406,90.406326 -0.150377,0.06068 -0.0249,0.01148 -0.145844,0.0672 -0.0249,0.01147 -0.141275,0.07382 -0.02349,0.01522 -0.134879,0.07975 -0.02349,0.01522 -0.130276,0.08646 -0.02166,0.01453 -0.125708,0.09308 -0.02096,0.01641 -0.120012,0.09714 -0.02026,0.01828 -0.113616,0.103071 -0.02026,0.01828 -0.107886,0.107222 -0.01784,0.01919 -0.103318,0.113839 -0.01713,0.02106 -0.03908,0.04595 -0.349481,0.425224 0.444428,0.367309 -0.540191,-0.199964 -0.190366,0.515736 -0.01623,0.04571 -0.0096,0.02443 -0.04593,0.144477 -0.0071,0.02562 -0.03907,0.146079 -0.0052,0.02493 -0.03153,0.149508 -0.0052,0.02493 -0.02467,0.151111 -0.0046,0.02671 -0.01667,0.150194 -0.0021,0.0279 -0.0098,0.151787 -0.0021,0.0279 -0.003,0.15339 0.0016,0.02652 0.0039,0.154993 0.0016,0.02652 0.0119,0.154066 0.0041,0.02773 0.02058,0.154983 0.0041,0.02763 0.02859,0.154073 0.0059,0.02693 0.03728,0.154981 0.0059,0.02693 0.04528,0.154073 0.0077,0.02626 0.04711,0.136692 0.179961,0.518668 0.559574,-0.193244 -0.442069,0.361909 0.347737,0.42652 0.01415,0.01552 0.01622,0.02104 0.103105,0.113594 0.01989,0.01967 0.107222,0.107885 0.01919,0.01779 0.112023,0.104001 0.02102,0.01711 0.117278,0.09577 0.02102,0.01711 0.121391,0.09005 0.02035,0.01533 0.126193,0.08617 0.02148,0.01277 0.129621,0.07862 0.02401,0.01396 0.131225,0.07176 0.02331,0.01208 0.137166,0.06537 0.02264,0.01031 0.139451,0.06034 0.02447,0.0096 0.140378,0.05169 0.02629,0.0089 0.144459,0.04589 0.02376,0.0077 0.146079,0.03908 0.02676,0.0046 0.147665,0.03219 0.02676,0.0046 0.05601,0.01028 0.542236,0.08863 0.09252,-0.570811 0.106584,0.573309 0.540166,-0.100411 0.0761,-0.01393 0.027,-0.0059 0.15497,-0.03731 0.027,-0.0059 0.15407,-0.04529 0.0263,-0.0077 0.15318,-0.05319 0.0256,-0.0096 0.15038,-0.06068 0.0249,-0.01147 0.14584,-0.06721 0.0242,-0.01335 0.14128,-0.07382 0.0242,-0.01335 0.13488,-0.07975 0.0235,-0.01522 0.13028,-0.08646 0.0235,-0.01522 0.12388,-0.09239 0.021,-0.01641 0.11931,-0.09901 0.021,-0.01641 0.11361,-0.103071 0.0197,-0.01987 0.10789,-0.107222 0.0197,-0.01987 0.10216,-0.111375 0.0171,-0.02106 0.0503,-0.06062 0.35016,-0.423398 -0.44763,-0.370283 0.53768,0.198824 0.19037,-0.515727 0.0119,-0.02945 0.007,-0.02562 0.0459,-0.144477 0.008,-0.02375 0.0384,-0.147906 0.007,-0.02562 0.0322,-0.147672 0.005,-0.02671 0.0235,-0.148591 0.005,-0.02671 0.0178,-0.152704 9.6e-4,-0.02535 0.0116,-0.152471 2.5e-4,-0.02722 0.003,-0.153381 2.6e-4,-0.02722 -0.006,-0.154308 -0.002,-0.02652 -0.0126,-0.155901 -0.003,-0.02585 -0.0206,-0.154983 -0.004,-0.02763 -0.0286,-0.154063 -0.004,-0.02763 -0.0373,-0.154981 -0.008,-0.02626 -0.0453,-0.154063 -0.008,-0.02626 -0.0533,-0.153143 -0.18064,-0.520503 -0.46495,0.161911 0.36527,-0.299732 -0.34774,-0.426521 -0.0233,-0.02884 -0.0181,-0.02034 -0.10311,-0.113604 -0.0181,-0.02034 -0.10904,-0.107199 -0.0181,-0.02034 -0.11316,-0.10149 -0.021,-0.01711 -0.11614,-0.09829 -0.0203,-0.01533 -0.12208,-0.09189 -0.0222,-0.01464 -0.12551,-0.08434 -0.0222,-0.01464 -0.12962,-0.07862 -0.0215,-0.01277 -0.13305,-0.07109 -0.0233,-0.01208 -0.13533,-0.06605 -0.0251,-0.0114 -0.13876,-0.05851 -0.0245,-0.0096 -0.14105,-0.05347 -0.0238,-0.0077 -0.14446,-0.04589 -0.0256,-0.0071 -0.14608,-0.03908 -0.0256,-0.0071 -0.1495,-0.0315 -0.0249,-0.0053 -0.0398,-0.0059 -0.542233,-0.08863 -0.09321,0.568985 -0.105443,-0.57583 -0.540864,0.09854 -0.09326,0.01832 -0.0277,0.004 -0.154975,0.03731 -0.0263,0.0077 -0.154063,0.0453 -0.0263,0.0077 -0.153188,0.05319 z m 0.399003,1.024756 0.127586,-0.04359 0.126034,-0.0366 0.128003,-0.03136 0.08046,-0.01352 0.427247,-0.07888 0.478231,0.07928 0.0242,0.0034 0.12277,0.027 0.12049,0.03202 0.1182,0.03704 0.1184,0.04317 0.11429,0.04887 0.112,0.0539 0.11042,0.06079 0.10563,0.06472 0.10334,0.06971 0.10104,0.07474 0.0969,0.08046 0.0921,0.08433 0.0898,0.08938 0.0832,0.09395 0.0174,0.01847 0.31276,0.383324 0.12665,0.365525 0.0478,0.138527 0.0375,0.127791 0.0313,0.128013 0.0226,0.127095 0.0165,0.127328 0.0103,0.127559 0.004,0.127783 -9e-4,0.125501 -0.009,0.126409 -0.0139,0.124131 -0.0201,0.124363 -0.027,0.12276 -0.032,0.120472 -0.037,0.118228 -0.006,0.01694 -0.16912,0.455602 -0.27977,0.338579 -0.0421,0.04911 -0.0836,0.09397 -0.0901,0.08804 -0.0932,0.08507 -0.099,0.08092 -0.10285,0.07617 -0.10675,0.07134 -0.11131,0.06472 -0.11634,0.06244 -0.11901,0.05532 -0.12478,0.05108 -0.12575,0.0429 -0.12787,0.03728 -0.1287,0.02948 -0.062,0.01259 -0.443245,0.08072 -0.462684,-0.07676 -0.0423,-0.0071 -0.122069,-0.02513 -0.120486,-0.03202 -0.118869,-0.03882 -0.11591,-0.04207 -0.116824,-0.05006 -0.112004,-0.0539 -0.107888,-0.05961 -0.107467,-0.06403 -0.103335,-0.06971 -0.101048,-0.07474 -0.09511,-0.08114 -0.09396,-0.08366 -0.08802,-0.09005 -0.08504,-0.09326 -0.0047,-0.0068 -0.326931,-0.398865 -0.131449,-0.378325 -0.04231,-0.123893 -0.03679,-0.125965 -0.0295,-0.128698 -0.02448,-0.126407 -0.01716,-0.129162 -0.0096,-0.125725 -0.0041,-0.127783 0.0027,-0.126186 0.0071,-0.125733 0.01576,-0.124806 0.01828,-0.123678 0.02696,-0.12276 0.032,-0.120473 0.03884,-0.118916 0.01236,-0.03379 0.162257,-0.440522 0.289826,-0.350693 0.03019,-0.03632 0.08436,-0.09209 0.08938,-0.08982 0.09325,-0.08507 0.09965,-0.07914 0.102845,-0.07617 0.106746,-0.07134 0.110647,-0.0665 0.117043,-0.06057 0.12084,-0.05601 z"
       id="path591430" />
    <path
       style="color:#000000;fill:#e3dbdb;stroke-width:1.1;stroke-linecap:square;stroke-linejoin:bevel;stroke-dasharray:2.2, 1.1;-inkscape-stroke:none;paint-order:stroke markers fill"
       d="m 102.76245,92.756163 a 3.145628,3.145628 0 0 1 -1.84042,4.050036 3.145628,3.145628 0 0 1 -4.05004,-1.84043 3.145628,3.145628 0 0 1 1.840427,-4.050036 3.145628,3.145628 0 0 1 4.050033,1.84043 z"
       id="path591432" />
    <path
       style="color:#000000;fill:#eee8e8;stroke-linecap:round;stroke-linejoin:round;stroke-dasharray:2.164, 1.082;-inkscape-stroke:none;paint-order:stroke markers fill"
       d="m 98.535359,90.45665 -0.148691,0.05964 a 0.54105411,0.54105411 0 0 0 -0.02562,0.0095 l -0.142343,0.06549 a 0.54105411,0.54105411 0 0 0 -0.02423,0.01329 l -0.139621,0.0728 a 0.54105411,0.54105411 0 0 0 -0.0224,0.01261 l -0.13507,0.07943 a 0.54105411,0.54105411 0 0 0 -0.0217,0.01448 l -0.12935,0.0836 a 0.54105411,0.54105411 0 0 0 -0.021,0.01636 l -0.124797,0.09022 a 0.54105411,0.54105411 0 0 0 -0.021,0.01636 l -0.116584,0.09549 a 0.54105411,0.54105411 0 0 0 -0.0203,0.01823 l -0.112695,0.100336 a 0.54105411,0.54105411 0 0 0 -0.01971,0.01982 l -0.107011,0.104408 a 0.54105411,0.54105411 0 0 0 -0.01788,0.01915 l -0.100594,0.110448 a 0.54105411,0.54105411 0 0 0 -0.01718,0.02102 l -0.04929,0.05794 a 0.54100001,0.54100001 45 0 0 0.07095,0.761388 0.54100001,0.54100001 45 0 0 0.76139,-0.07095 l 0.04036,-0.04832 0.08275,-0.09121 0.08843,-0.08714 0.09415,-0.08297 0.09551,-0.07932 0.101894,-0.07337 0.106916,-0.07108 0.109639,-0.06377 0.114661,-0.06148 0.117312,-0.05436 0.123764,-0.04822 0.123331,-0.04379 0.126122,-0.0363 0.125114,-0.02781 0.06206,-0.01244 a 0.54100001,0.54100001 45 0 0 0.436691,-0.629468 0.54100001,0.54100001 45 0 0 -0.628785,-0.434858 l -0.07616,0.01374 a 0.54105411,0.54105411 0 0 0 -0.02702,0.0058 l -0.151401,0.03557 a 0.54105411,0.54105411 0 0 0 -0.02702,0.0058 l -0.15234,0.04424 a 0.54105411,0.54105411 0 0 0 -0.02562,0.0095 l -0.149653,0.05146 a 0.54105411,0.54105411 0 0 0 -0.02562,0.0095 z m 1.895251,-0.182651 a 0.54100001,0.54100001 45 0 0 -0.621656,0.446175 0.54100001,0.54100001 45 0 0 0.444336,0.622343 l 0.0423,0.0072 0.12018,0.0261 0.11971,0.03044 0.11628,0.03801 0.11647,0.04413 0.11168,0.04805 0.11121,0.05238 0.10774,0.05986 0.10478,0.0631 0.10133,0.07064 0.0984,0.07384 0.0961,0.07886 0.0913,0.08274 0.0871,0.08844 0.0823,0.09231 0.003,0.0031 a 0.54100001,0.54100001 45 0 0 0.76104,0.07923 0.54100001,0.54100001 45 0 0 0.0793,-0.761038 l -0.0117,-0.01443 a 0.54105411,0.54105411 0 0 0 -0.0174,-0.01851 l -0.10032,-0.112694 a 0.54105411,0.54105411 0 0 0 -0.0181,-0.02038 l -0.10628,-0.106304 a 0.54105411,0.54105411 0 0 0 -0.0191,-0.01784 l -0.11109,-0.102441 a 0.54105411,0.54105411 0 0 0 -0.0191,-0.01784 l -0.11637,-0.09422 a 0.54105411,0.54105411 0 0 0 -0.0203,-0.01538 l -0.11935,-0.09102 a 0.54105411,0.54105411 0 0 0 -0.0203,-0.01538 l -0.12463,-0.08281 a 0.54105411,0.54105411 0 0 0 -0.0203,-0.01538 l -0.12875,-0.07711 a 0.54105411,0.54105411 0 0 0 -0.0215,-0.01282 l -0.13037,-0.07025 a 0.54105411,0.54105411 0 0 0 -0.0233,-0.01214 l -0.13266,-0.06522 a 0.54105411,0.54105411 0 0 0 -0.0245,-0.0097 l -0.13679,-0.05952 a 0.54105411,0.54105411 0 0 0 -0.0226,-0.01036 l -0.14026,-0.05203 a 0.54105411,0.54105411 0 0 0 -0.0237,-0.0078 l -0.14186,-0.04513 a 0.54105411,0.54105411 0 0 0 -0.0256,-0.0071 l -0.14346,-0.03824 a 0.54105411,0.54105411 0 0 0 -0.0256,-0.0071 l -0.14509,-0.03144 a 0.54105411,0.54105411 0 0 0 -0.0267,-0.0047 z m -3.33943,2.035543 a 0.54100001,0.54100001 45 0 0 -0.696571,0.317763 l -0.01127,0.0313 a 0.54105411,0.54105411 0 0 0 -0.0097,0.02441 l -0.04513,0.141858 a 0.54105411,0.54105411 0 0 0 -0.0071,0.0256 l -0.03828,0.143478 a 0.54105411,0.54105411 0 0 0 -0.0071,0.0256 l -0.03074,0.146915 a 0.54105411,0.54105411 0 0 0 -0.0053,0.02492 l -0.02457,0.146707 a 0.54105411,0.54105411 0 0 0 -0.0028,0.02602 l -0.01703,0.150153 a 0.54105411,0.54105411 0 0 0 -0.0028,0.02602 l -0.01086,0.149926 a 0.54105411,0.54105411 0 0 0 -3.2e-4,0.02722 l -0.004,0.151546 a 0.54105411,0.54105411 0 0 0 8.56e-4,0.02465 l 0.0047,0.152485 a 0.54105411,0.54105411 0 0 0 0.0016,0.02653 l 0.01085,0.152266 a 0.54105411,0.54105411 0 0 0 0.004,0.02764 l 0.01953,0.153205 a 0.54105411,0.54105411 0 0 0 0.0033,0.02586 l 0.02754,0.152304 a 0.54105411,0.54105411 0 0 0 0.0059,0.02694 l 0.03554,0.151405 a 0.54105411,0.54105411 0 0 0 0.0077,0.02638 l 0.04422,0.152345 a 0.54105411,0.54105411 0 0 0 0.0077,0.02628 l 0.04951,0.144133 a 0.54100001,0.54100001 45 0 0 0.687764,0.335788 0.54100001,0.54100001 45 0 0 0.335784,-0.687769 l -0.04474,-0.131313 -0.03648,-0.126053 -0.02966,-0.124424 -0.02418,-0.126474 -0.01548,-0.12553 -0.0093,-0.125756 -0.005,-0.125281 0.0037,-0.124342 0.0081,-0.12388 0.01491,-0.122269 0.01926,-0.121797 0.02611,-0.120188 0.03228,-0.120395 0.03798,-0.116265 0.0074,-0.01939 a 0.54100001,0.54100001 45 0 0 -0.317754,-0.696574 z m 5.45372,-0.04052 a 0.54100001,0.54100001 45 0 0 -0.33646,0.685932 l 0.0475,0.138632 0.0365,0.126053 0.0297,0.124423 0.0223,0.127158 0.0173,0.124846 0.009,0.125757 0.003,0.125964 -0.002,0.123662 -0.008,0.123879 -0.0149,0.12227 -0.0211,0.122478 -0.0261,0.120187 -0.0311,0.117875 -0.0373,0.118139 -0.005,0.01438 a 0.54100001,0.54100001 45 0 0 0.31776,0.696574 0.54100001,0.54100001 45 0 0 0.69474,-0.317082 l 0.0108,-0.02696 a 0.54105411,0.54105411 0 0 0 0.007,-0.0256 l 0.0476,-0.140711 a 0.54105411,0.54105411 0 0 0 0.005,-0.02492 l 0.0401,-0.144158 a 0.54105411,0.54105411 0 0 0 0.005,-0.02492 l 0.0307,-0.146915 a 0.54105411,0.54105411 0 0 0 0.005,-0.02492 l 0.0264,-0.147378 a 0.54105411,0.54105411 0 0 0 0.003,-0.02602 l 0.017,-0.150153 a 0.54105411,0.54105411 0 0 0 0.003,-0.02602 l 0.0109,-0.149935 a 0.54105411,0.54105411 0 0 0 3.2e-4,-0.02722 l 0.002,-0.150875 a 0.54105411,0.54105411 0 0 0 0.001,-0.02535 l -0.005,-0.152484 a 0.54105411,0.54105411 0 0 0 -0.002,-0.02653 l -0.0134,-0.153423 a 0.54105411,0.54105411 0 0 0 -0.002,-0.02652 l -0.0214,-0.152521 a 0.54105411,0.54105411 0 0 0 -0.003,-0.02586 l -0.0275,-0.152304 a 0.54105411,0.54105411 0 0 0 -0.006,-0.02694 l -0.0355,-0.151405 a 0.54105411,0.54105411 0 0 0 -0.006,-0.02694 l -0.0442,-0.152344 a 0.54105411,0.54105411 0 0 0 -0.008,-0.02628 l -0.0522,-0.151452 a 0.54100001,0.54100001 45 0 0 -0.68708,-0.33395 z m -5.431878,3.177381 a 0.54100001,0.54100001 45 0 0 -0.07741,0.760357 l 0.0077,0.0096 a 0.54105411,0.54105411 0 0 0 0.01548,0.01921 l 0.102156,0.112023 a 0.54105411,0.54105411 0 0 0 0.01805,0.02038 l 0.106282,0.106314 a 0.54105411,0.54105411 0 0 0 0.01915,0.01784 l 0.111093,0.102441 a 0.54105411,0.54105411 0 0 0 0.01915,0.01784 l 0.114536,0.0949 a 0.54105411,0.54105411 0 0 0 0.02031,0.01538 l 0.119348,0.09102 a 0.54105411,0.54105411 0 0 0 0.02215,0.01469 l 0.122798,0.0835 a 0.54105411,0.54105411 0 0 0 0.02215,0.01469 l 0.126244,0.07596 a 0.54105411,0.54105411 0 0 0 0.02398,0.01401 l 0.128535,0.07093 a 0.54105411,0.54105411 0 0 0 0.02328,0.01214 l 0.134495,0.06454 a 0.54105411,0.54105411 0 0 0 0.02262,0.01036 l 0.136794,0.05952 a 0.54105411,0.54105411 0 0 0 0.02444,0.0097 l 0.140256,0.05203 a 0.54105411,0.54105411 0 0 0 0.02375,0.0078 l 0.141855,0.04513 a 0.54105411,0.54105411 0 0 0 0.02375,0.0078 l 0.145287,0.03756 a 0.54105411,0.54105411 0 0 0 0.02557,0.0071 l 0.145094,0.03144 a 0.54105411,0.54105411 0 0 0 0.02491,0.0053 l 0.06214,0.01015 a 0.54100001,0.54100001 45 0 0 0.622344,-0.444338 0.54100001,0.54100001 45 0 0 -0.444336,-0.622343 l -0.04913,-0.0088 -0.120179,-0.0261 -0.117881,-0.03112 -0.118112,-0.03733 -0.114645,-0.04481 -0.113506,-0.04737 -0.109375,-0.05307 -0.107744,-0.05986 -0.105477,-0.06498 -0.102484,-0.06812 -0.09836,-0.07384 -0.09423,-0.07954 -0.09125,-0.08274 -0.08712,-0.08844 -0.08163,-0.09048 -0.0026,-0.0012 a 0.54100001,0.54100001 45 0 0 -0.760363,-0.07741 z m 5.040208,-0.149148 a 0.54100001,0.54100001 45 0 0 -0.36598,0.192522 l -0.0426,0.05343 -0.0852,0.09011 -0.0878,0.08892 -0.0923,0.08229 -0.0973,0.08 -0.1019,0.07337 -0.10508,0.0704 -0.11147,0.06445 -0.11283,0.0608 -0.11914,0.05504 -0.12194,0.04754 -0.12516,0.04447 -0.12429,0.03561 -0.12694,0.02849 -0.0566,0.01039 a 0.54100001,0.54100001 45 0 0 -0.434864,0.628787 0.54100001,0.54100001 45 0 0 0.629464,0.436685 l 0.07,-0.01357 a 0.54105411,0.54105411 0 0 0 0.0252,-0.0051 l 0.15324,-0.03625 a 0.54105411,0.54105411 0 0 0 0.0263,-0.0077 l 0.15121,-0.04169 a 0.54105411,0.54105411 0 0 0 0.0256,-0.0095 l 0.15149,-0.05214 a 0.54105411,0.54105411 0 0 0 0.0256,-0.0095 l 0.14686,-0.05896 a 0.54105411,0.54105411 0 0 0 0.0256,-0.0095 l 0.14348,-0.06805 a 0.54105411,0.54105411 0 0 0 0.0249,-0.01141 l 0.13779,-0.07212 a 0.54105411,0.54105411 0 0 0 0.0242,-0.01329 l 0.13324,-0.07875 a 0.54105411,0.54105411 0 0 0 0.0235,-0.01516 l 0.12682,-0.08479 a 0.54105411,0.54105411 0 0 0 0.0235,-0.01516 l 0.12297,-0.08954 a 0.54105411,0.54105411 0 0 0 0.021,-0.01636 l 0.11842,-0.09617 a 0.54105411,0.54105411 0 0 0 0.0203,-0.01823 l 0.1127,-0.100336 a 0.54105411,0.54105411 0 0 0 0.0179,-0.01914 l 0.10631,-0.106282 a 0.54105411,0.54105411 0 0 0 0.0203,-0.01823 l 0.10104,-0.109315 a 0.54105411,0.54105411 0 0 0 0.0172,-0.02102 l 0.0516,-0.06296 a 0.54100001,0.54100001 45 0 0 -0.071,-0.761387 0.54100001,0.54100001 45 0 0 -0.39542,-0.121603 z"
       id="path591422" />
    <path
       style="color:#000000;fill:#e3dbdb;stroke-width:1.082;stroke-linecap:round;stroke-linejoin:round;stroke-dasharray:2.164, 1.082;-inkscape-stroke:none;paint-order:stroke markers fill"
       d="m 102.72016,92.779948 a 3.097683,3.097683 0 0 1 -1.82192,3.98395 3.097683,3.097683 0 0 1 -3.983954,-1.821918 3.097683,3.097683 0 0 1 1.821919,-3.98396 3.097683,3.097683 0 0 1 3.983955,1.821928 z"
       id="path591424" />
    <path
       style="color:#000000;fill:#faefef;-inkscape-stroke:none;paint-order:markers stroke fill"
       d="m 97.504011,91.831905 c -1.118051,1.274327 -0.989288,3.224347 0.285045,4.342403 1.274326,1.118049 3.223064,0.990753 4.341114,-0.283575 1.11805,-1.274327 0.99075,-3.223061 -0.28358,-4.34111 -1.27433,-1.118056 -3.224529,-0.992046 -4.342579,0.282282 z m 0.485963,0.426367 c 0.887712,-1.011793 2.418456,-1.110405 3.430256,-0.22269 1.01179,0.887708 1.11169,2.416991 0.22397,3.428784 -0.88771,1.011793 -2.416992,1.111692 -3.42878,0.223983 -1.011797,-0.887715 -1.113158,-2.418284 -0.225446,-3.430077 z"
       id="path591414" />
    <path
       style="color:#000000;fill:#faefef;stroke-linecap:round;stroke-linejoin:round;stroke-miterlimit:0.5;-inkscape-stroke:none;paint-order:stroke fill markers"
       d="m 99.625,90.773437 a 0.05058306,0.05058306 0 0 0 -0.05078,0.05078 v 1.90039 a 0.05058306,0.05058306 0 0 0 0.05078,0.05078 h 0.38477 a 0.05058306,0.05058306 0 0 0 0.0508,-0.05078 v -1.90039 a 0.05058306,0.05058306 0 0 0 -0.0508,-0.05078 z M 99.67578,90.875 h 0.283203 v 1.798828 H 99.67578 Z"
       id="path591406" />
    <path
       style="color:#000000;fill:#dad3d3;stroke-width:0.101156;stroke-linecap:round;stroke-linejoin:round;stroke-miterlimit:0.5;-inkscape-stroke:none;paint-order:stroke fill markers"
       d="m 99.624977,90.823914 h 0.384483 v 1.901081 h -0.384483 z"
       id="path591408" />
  </g>
  <g
     inkscape:groupmode="layer"
     id="layer2"
     inkscape:label="Layer 2">
    <path
       style="color:#000000;fill:url(#linearGradient123333);stroke-width:0.646246;-inkscape-stroke:none;paint-order:markers stroke fill"
       d="M 5.512261,1.666816 A 2.7533717,2.7533717 0 0 1 5.766081,5.552389 2.7533717,2.7533717 0 0 1 1.880504,5.806207 2.7533717,2.7533717 0 0 1 1.626689,1.920634 2.7533717,2.7533717 0 0 1 5.512261,1.666816 Z"
       id="path591416" />
  </g>
</svg>
