<?xml version="1.0" encoding="UTF-8" standalone="no"?>
<!-- Created with Inkscape (http://www.inkscape.org/) -->

<svg
   width="3.0968795mm"
   height="1.0751717mm"
   viewBox="0 0 3.0968795 1.0751717"
   version="1.1"
   id="svg573944"
   inkscape:version="1.2-dev (ac43753, 2021-08-09)"
   sodipodi:docname="VektronixDiskLightOn.svg"
   xmlns:inkscape="http://www.inkscape.org/namespaces/inkscape"
   xmlns:sodipodi="http://sodipodi.sourceforge.net/DTD/sodipodi-0.dtd"
   xmlns="http://www.w3.org/2000/svg"
   xmlns:svg="http://www.w3.org/2000/svg">
  <sodipodi:namedview
     id="namedview573946"
     pagecolor="#505050"
     bordercolor="#ffffff"
     borderopacity="1"
     inkscape:pageshadow="0"
     inkscape:pageopacity="0"
     inkscape:pagecheckerboard="1"
     inkscape:document-units="mm"
     showgrid="false"
     fit-margin-top="0"
     fit-margin-left="0"
     fit-margin-right="0"
     fit-margin-bottom="0"
     inkscape:zoom="24.174186"
     inkscape:cx="7.6527912"
     inkscape:cy="0.55844693"
     inkscape:window-width="1304"
     inkscape:window-height="1041"
     inkscape:window-x="2717"
     inkscape:window-y="5"
     inkscape:window-maximized="0"
     inkscape:current-layer="layer1" />
  <defs
     id="defs573941" />
  <g
     inkscape:label="Layer 1"
     inkscape:groupmode="layer"
     id="layer1"
     transform="translate(-103.52231,-107.68529)">
    <g
       id="g573939"
       transform="translate(94.275603,91.946707)">
      <rect
         style="display:inline;fill:#7aab5a;fill-opacity:1;stroke:#968080;stroke-width:0.0944515;stroke-linecap:round;stroke-linejoin:round;stroke-miterlimit:0.5;stroke-dasharray:none;stroke-dashoffset:0;stroke-opacity:1;paint-order:stroke fill markers"
         id="rect30478-1"
         width="3.0024281"
         height="0.98072022"
         x="9.2939377"
         y="15.78581" />
      <g
         id="g573933">
        <path
           style="display:inline;fill:#80d547;fill-opacity:1;stroke:none;stroke-width:0.0944515;stroke-linecap:round;stroke-linejoin:round;stroke-miterlimit:0.5;stroke-dasharray:none;stroke-dashoffset:0;stroke-opacity:1;paint-order:stroke fill markers"
           d="m 10.075299,15.785761 a 0.8325324,0.82625239 0 0 0 -0.1126544,0.414962 0.8325324,0.82625239 0 0 0 0.2263424,0.565857 h 1.212329 a 0.8325324,0.82625239 0 0 0 0.226343,-0.565857 0.8325324,0.82625239 0 0 0 -0.112655,-0.414962 z"
           id="path553472" />
        <path
           id="rect30478-1-8-3"
           style="display:inline;fill:#7bbf4f;fill-opacity:1;stroke:none;stroke-width:0.094;stroke-linecap:round;stroke-linejoin:round;stroke-miterlimit:0.5;stroke-dasharray:none;stroke-dashoffset:0;stroke-opacity:1;paint-order:stroke fill markers"
           d="m 10.075298,15.785761 a 0.8325324,0.82625239 0 0 0 -0.1126538,0.414962 0.8325324,0.82625239 0 0 0 0.2263428,0.565857 h 0.353466 c -0.219701,-0.09513 -0.370519,-0.31142 -0.37052,-0.56534 0,-0.160146 0.0597,-0.305737 0.159164,-0.415479 z m 1.184424,0 c 0.09992,0.109742 0.160197,0.255333 0.160197,0.415479 0,0.25392 -0.15233,0.470207 -0.372587,0.56534 h 0.353984 a 0.8325324,0.82625239 0 0 0 0.226343,-0.565857 0.8325324,0.82625239 0 0 0 -0.112655,-0.414962 z" />
      </g>
    </g>
  </g>
</svg>
