<?xml version="1.0" encoding="UTF-8" standalone="no"?>
<!-- Created with Inkscape (http://www.inkscape.org/) -->

<svg
   width="15.363215mm"
   height="15.360279mm"
   viewBox="0 0 15.363215 15.360279"
   version="1.1"
   id="svg537538"
   inkscape:version="1.2-dev (ac43753, 2021-08-09)"
   sodipodi:docname="VektronixBigKnobDark.svg"
   xmlns:inkscape="http://www.inkscape.org/namespaces/inkscape"
   xmlns:sodipodi="http://sodipodi.sourceforge.net/DTD/sodipodi-0.dtd"
   xmlns:xlink="http://www.w3.org/1999/xlink"
   xmlns="http://www.w3.org/2000/svg"
   xmlns:svg="http://www.w3.org/2000/svg">
  <sodipodi:namedview
     id="namedview537540"
     pagecolor="#505050"
     bordercolor="#ffffff"
     borderopacity="1"
     inkscape:pageshadow="0"
     inkscape:pageopacity="0"
     inkscape:pagecheckerboard="1"
     inkscape:document-units="mm"
     showgrid="false"
     fit-margin-top="0"
     fit-margin-left="0"
     fit-margin-right="0"
     fit-margin-bottom="0"
     inkscape:zoom="11.313709"
     inkscape:cx="28.947184"
     inkscape:cy="24.969708"
     inkscape:window-width="1627"
     inkscape:window-height="985"
     inkscape:window-x="1977"
     inkscape:window-y="53"
     inkscape:window-maximized="0"
     inkscape:current-layer="layer1" />
  <defs
     id="defs537535">
    <linearGradient
       inkscape:collect="always"
       xlink:href="#linearGradient11890"
       id="linearGradient66824"
       gradientUnits="userSpaceOnUse"
       gradientTransform="matrix(0.47118954,-0.53705063,0.53705063,0.47118954,2.74703,-15.851175)"
       x1="-29.74379"
       y1="26.902344"
       x2="-10.70153"
       y2="26.902344" />
    <linearGradient
       inkscape:collect="always"
       id="linearGradient11890">
      <stop
         style="stop-color:#181212;stop-opacity:1;"
         offset="0"
         id="stop11886" />
      <stop
         style="stop-color:#382525;stop-opacity:1;"
         offset="1"
         id="stop11888" />
    </linearGradient>
  </defs>
  <g
     inkscape:label="Layer 1"
     inkscape:groupmode="layer"
     id="layer1"
     transform="translate(241.28892,-14.034483)">
    <path
       style="color:#000000;fill:#000000;stroke-linecap:square;stroke-linejoin:bevel;stroke-dasharray:2.82949, 1.41475;-inkscape-stroke:none;paint-order:stroke markers fill;fill-opacity:1"
       d="m -233.68962,14.03413 -0.70179,0.07325 -0.11864,0.01167 -0.0174,0.0031 -0.17672,0.02133 -0.0174,0.0031 -0.17439,0.02705 -0.0174,0.0031 -0.17219,0.03082 -0.0174,0.0031 -0.17179,0.03667 -0.0174,0.0031 -0.1696,0.04044 -0.0174,0.0031 -0.16739,0.04421 -0.0173,0.005 -0.16714,0.04811 -0.0173,0.005 -0.16298,0.05175 -0.0173,0.005 -0.16274,0.05565 -0.0173,0.005 -0.16053,0.05942 -0.0152,0.0069 -0.16027,0.06332 -0.0152,0.0069 -0.15612,0.06696 -0.0172,0.007 -0.15392,0.07073 -0.0152,0.0069 -0.15366,0.07463 -0.0151,0.0088 -0.14964,0.07632 -0.0151,0.0088 -0.10584,0.0578 -0.61977,0.339951 0.35122,0.642535 -0.48438,-0.553588 -0.53122,0.467261 -0.10926,0.09522 -0.011,0.01051 -0.1237,0.113774 -0.013,0.01064 -0.11968,0.11547 -0.0109,0.01246 -0.11747,0.119239 -0.0129,0.01259 -0.11345,0.120934 -0.0129,0.01259 -0.11137,0.122755 -0.0108,0.01441 -0.10723,0.126399 -0.0109,0.01246 -0.1071,0.128348 -0.009,0.01429 -0.10294,0.131991 -0.0109,0.01246 -0.0988,0.135634 -0.0109,0.01246 -0.0948,0.137328 -0.0108,0.01441 -0.0927,0.13915 -0.009,0.0143 -0.0887,0.140848 -0.009,0.01429 -0.0866,0.142666 -0.009,0.0143 -0.0824,0.14631 -0.009,0.0143 -0.0784,0.148004 -0.009,0.01624 -0.0763,0.149823 -0.007,0.01416 -0.005,0.01014 -0.30462,0.640358 0.65244,0.309693 -0.70847,-0.178808 -0.17449,0.684705 -0.0231,0.09546 -0.005,0.01598 -0.038,0.166895 -0.003,0.0178 -0.034,0.168589 -0.003,0.0178 -0.03,0.170284 -0.003,0.01585 -0.0259,0.171979 -0.003,0.0178 -0.0221,0.171725 -8.5e-4,0.01767 -0.018,0.173419 -8.5e-4,0.01767 -0.014,0.175114 -8.5e-4,0.01767 -0.008,0.17473 -8.5e-4,0.01767 -0.004,0.178373 -8.5e-4,0.01767 -2.2e-4,0.17617 10e-4,0.01949 0.006,0.177747 -8.5e-4,0.01767 0.01,0.179436 0.001,0.01754 0.0137,0.179175 0.003,0.01741 0.0177,0.178914 0.001,0.01754 0.0233,0.176593 0.003,0.01741 0.0142,0.09498 0.10833,0.699504 0.72458,-0.113879 -0.6841,0.254117 0.24686,0.663053 0.017,0.04978 0.007,0.0152 0.0633,0.160278 0.007,0.0152 0.0669,0.156126 0.007,0.01715 0.0707,0.153923 0.007,0.0152 0.0747,0.153663 0.007,0.0152 0.0783,0.149511 0.009,0.01507 0.0802,0.149386 0.009,0.01507 0.0858,0.145104 0.009,0.01507 0.0876,0.143031 0.009,0.01507 0.0914,0.140828 0.009,0.01312 0.0951,0.138624 0.011,0.01494 0.097,0.136545 0.0109,0.01299 0.10077,0.134343 0.0109,0.01299 0.10441,0.13019 0.011,0.01495 0.10628,0.12811 0.0109,0.01299 0.11,0.12591 0.0124,0.01093 0.11183,0.123833 0.0126,0.01288 0.0565,0.05699 0.48938,0.5102 0.52854,-0.508189 -0.41731,0.592916 0.57851,0.406514 0.006,0.0035 0.0124,0.01093 0.13915,0.09269 0.0143,0.0089 0.1428,0.08854 0.0143,0.0089 0.14267,0.08658 0.0143,0.0089 0.14631,0.08244 0.0143,0.0089 0.14801,0.07841 0.0162,0.0088 0.14983,0.07634 0.0142,0.0069 0.15152,0.07231 0.0161,0.0068 0.15321,0.06829 0.0161,0.0068 0.15503,0.06621 0.0161,0.0068 0.15855,0.0601 0.0161,0.0068 0.15843,0.05816 0.0159,0.0049 0.16206,0.054 0.016,0.0049 0.16182,0.05011 0.0179,0.0047 0.1635,0.04608 0.016,0.0049 0.16714,0.04192 0.016,0.0049 0.1669,0.03803 0.0178,0.0027 0.1191,0.02549 0.69411,0.138644 0.14648,-0.723979 6.9e-4,0.730024 0.70638,-0.0031 0.0334,0.0017 0.0176,-0.0011 0.17969,-0.0058 0.0177,8.48e-4 0.17943,-0.0097 0.0176,-0.0011 0.17917,-0.01371 0.0174,-0.0031 0.17696,-0.01747 0.0195,-0.0013 0.17464,-0.02315 0.0174,-0.0031 0.17634,-0.02718 0.0174,-0.0031 0.17219,-0.03082 0.0174,-0.0031 0.17181,-0.03667 0.0174,-0.0031 0.16959,-0.04044 0.0174,-0.0031 0.1674,-0.0442 0.0173,-0.005 0.16714,-0.04811 0.0153,-0.0049 0.16494,-0.05188 0.0173,-0.005 0.16274,-0.05565 0.0173,-0.005 0.16053,-0.05942 0.0152,-0.0069 0.15833,-0.06319 0.0172,-0.007 0.15431,-0.06489 0.64919,-0.279239 -0.28895,-0.677919 0.42639,0.594564 0.57389,-0.413287 0.0879,-0.0625 0.013,-0.01067 0.13434,-0.100771 0.013,-0.01067 0.13019,-0.104408 0.013,-0.01067 0.12812,-0.106237 0.013,-0.01067 0.12591,-0.110004 0.0129,-0.01259 0.12383,-0.111826 0.0109,-0.01246 0.12164,-0.115597 0.0109,-0.01246 0.1176,-0.117291 0.0129,-0.01259 0.11333,-0.122883 0.011,-0.01054 0.11125,-0.124705 0.0129,-0.01259 0.10722,-0.126399 0.0108,-0.0144 0.10514,-0.12822 0.0108,-0.0144 0.10294,-0.131991 0.0109,-0.01246 0.0989,-0.133686 0.009,-0.01429 0.0967,-0.137457 0.009,-0.01235 0.0927,-0.13915 0.0108,-0.0144 0.0887,-0.140847 0.009,-0.01625 0.0266,-0.04284 0.36367,-0.605071 -0.62545,-0.376046 0.68564,0.248805 0.24033,-0.665518 0.0165,-0.0461 0.007,-0.01611 0.054,-0.162065 0.005,-0.01598 0.0502,-0.161817 0.005,-0.01793 0.046,-0.163505 0.005,-0.01598 0.0419,-0.167149 0.005,-0.01598 0.038,-0.166894 0.003,-0.0178 0.034,-0.16859 0.003,-0.0178 0.0301,-0.168335 0.003,-0.0178 0.0259,-0.171978 0.003,-0.0178 0.0221,-0.171724 8.5e-4,-0.01767 0.018,-0.17342 8.5e-4,-0.01767 0.014,-0.175114 8.5e-4,-0.01767 0.008,-0.174729 8.5e-4,-0.01767 10e-4,-0.0764 0.0409,-0.0027 -0.0529,-0.687465 -5.1e-4,-0.0078 -6.4e-4,-0.0097 -0.037,-0.688508 -0.0409,0.0027 -0.0109,-0.07562 -0.003,-0.01741 -0.0308,-0.172187 -0.003,-0.01741 -0.0367,-0.171803 -0.003,-0.01741 -0.0404,-0.1696 -0.003,-0.01741 -0.008,-0.02495 -0.17785,-0.685177 -0.69869,0.180693 0.65639,-0.318855 -0.30966,-0.635463 -0.0452,-0.09295 -0.009,-0.01507 -0.0763,-0.149641 -0.009,-0.01507 -0.0821,-0.147307 -0.007,-0.0152 -0.086,-0.147052 -0.009,-0.01507 -0.0876,-0.143031 -0.009,-0.01507 -0.0914,-0.140828 -0.0109,-0.01299 -0.0932,-0.138748 -0.011,-0.01494 -0.097,-0.136545 -0.0109,-0.01299 -0.10077,-0.134342 -0.0109,-0.01299 -0.1044,-0.13019 -0.0109,-0.01299 -0.10628,-0.128111 -0.0126,-0.01288 -0.11,-0.12591 -0.0109,-0.01299 -0.11377,-0.123706 -0.0108,-0.01104 -0.11559,-0.12163 -0.0124,-0.01093 -0.11924,-0.117477 -0.0126,-0.01288 -0.12093,-0.113452 -0.0124,-0.01093 -0.12275,-0.111376 -0.0146,-0.01275 -0.0332,-0.02915 -0.53699,-0.460117 -0.47456,0.555553 0.35981,-0.634178 -0.61392,-0.349397 -0.0387,-0.02292 -0.0143,-0.0089 -0.14801,-0.07841 -0.0162,-0.0087 -0.1497,-0.07438 -0.0143,-0.0089 -0.15153,-0.07231 -0.0161,-0.0068 -0.15321,-0.06828 -0.0161,-0.0068 -0.15699,-0.06608 -0.014,-0.005 -0.15869,-0.06205 -0.0161,-0.0068 -0.1583,-0.05621 -0.0161,-0.0068 -0.16207,-0.054 -0.0159,-0.0048 -0.16181,-0.05011 -0.018,-0.0047 -0.16351,-0.04608 -0.0179,-0.0047 -0.1652,-0.04206 -0.016,-0.0048 -0.1669,-0.03803 -0.0178,-0.0028 -0.1686,-0.034 -0.0178,-0.0028 -0.17028,-0.02998 -0.0158,-0.0029 -0.17197,-0.02595 -0.0178,-0.0028 -0.17172,-0.02206 -0.0177,-7.99e-4 -0.063,-0.0057 -0.70341,-0.07149 -0.0719,0.726936 z m 0.0534,1.417501 0.6599,0.06454 0.0532,0.0063 0.15393,0.0193 0.15418,0.0232 0.15237,0.02528 0.15079,0.03125 0.15092,0.0332 0.14741,0.0393 0.14753,0.04125 0.14571,0.04333 0.14415,0.0493 0.14427,0.05125 0.14063,0.0554 0.13881,0.05748 0.13919,0.06333 0.13529,0.06358 0.13568,0.06943 0.13177,0.06968 0.0325,0.0194 0.55707,0.31788 0.48716,0.416397 0.027,0.02368 0.11224,0.100319 0.10849,0.102521 0.10664,0.104599 0.10501,0.108621 0.10114,0.110831 0.0994,0.112903 0.0956,0.115107 0.0937,0.117185 0.0921,0.121208 0.0862,0.121592 0.0865,0.125491 0.0807,0.125868 0.0809,0.129766 0.075,0.130151 0.0732,0.13223 0.0696,0.136376 0.0407,0.08346 0.26212,0.53679 0.17216,0.658146 0.003,0.01741 0.0354,0.152313 0.0335,0.154392 0.0277,0.154771 0.024,0.156973 0.0204,0.159164 0.0164,0.159425 0.0119,0.151889 0.001,0.01754 0.008,0.15215 0.005,0.162156 3.3e-4,0.158518 -0.003,0.15876 -0.007,0.159014 -0.0133,0.155494 -0.0153,0.155624 -0.0192,0.155879 -0.0233,0.152235 -0.0253,0.152365 -0.0311,0.152743 -0.0334,0.148976 -0.0391,0.149354 -0.0413,0.147535 -0.0433,0.14571 -0.0493,0.144146 -0.0131,0.03805 -0.21712,0.601369 -0.33202,0.550157 -0.0212,0.03465 -0.0798,0.126565 -0.0838,0.124872 -0.0859,0.123046 -0.09,0.121358 -0.0921,0.117583 -0.0941,0.117712 -0.0982,0.114069 -0.10045,0.110298 -0.10239,0.110424 -0.1046,0.106655 -0.10875,0.103008 -0.11082,0.101189 -0.11291,0.09937 -0.11498,0.09754 -0.11731,0.09183 -0.12121,0.09208 -0.0785,0.05602 -0.53644,0.387354 -0.55611,0.235971 -0.14651,0.06438 -0.14116,0.05619 -0.14533,0.05255 -0.14544,0.05061 -0.14766,0.04683 -0.14985,0.04306 -0.15011,0.03917 -0.15231,0.03539 -0.15452,0.03162 -0.15477,0.02773 -0.15698,0.02395 -0.15918,0.02022 -0.15943,0.01633 -0.1615,0.01446 -0.16008,0.0065 -0.16214,0.0047 -0.0234,0.0015 -0.68299,0.0016 -0.58122,-0.118616 -0.11301,-0.02198 -0.14898,-0.03333 -0.14922,-0.03722 -0.14559,-0.04138 -0.14778,-0.04515 -0.14415,-0.0493 -0.14233,-0.05138 -0.14063,-0.0554 -0.14075,-0.05736 -0.13712,-0.0615 -0.13736,-0.0654 -0.1336,-0.06761 -0.13385,-0.07151 -0.13021,-0.07565 -0.12826,-0.07579 -0.12669,-0.08176 -0.12487,-0.08384 1.3e-4,0.002 -0.5497,-0.384909 -0.42424,-0.442036 -0.0504,-0.05152 -0.10114,-0.110831 -0.0994,-0.112904 -0.0976,-0.114976 -0.0918,-0.117309 -0.092,-0.119259 -0.0883,-0.123411 -0.0844,-0.123665 -0.0827,-0.127693 -0.0788,-0.127948 -0.0752,-0.1321 -0.0733,-0.132224 -0.0694,-0.134433 -0.0676,-0.136506 -0.0619,-0.13884 -0.0601,-0.140912 -0.0582,-0.142992 -0.0145,-0.04212 -0.22835,-0.619245 -0.0946,-0.608411 -0.0137,-0.08718 -0.0203,-0.157215 -0.0166,-0.161373 -0.0124,-0.159686 -0.009,-0.161894 -0.004,-0.160207 -4.6e-4,-0.160468 0.003,-0.158759 0.007,-0.157065 0.0113,-0.15732 0.0153,-0.155624 0.0212,-0.154053 0.0212,-0.154054 0.0272,-0.152489 0.0312,-0.150794 0.0332,-0.150925 0.0218,-0.08559 0.14655,-0.573271 0.29405,-0.622054 0.002,-0.0021 0.0675,-0.135548 0.0717,-0.131904 0.0755,-0.132159 0.0758,-0.128261 0.0818,-0.126696 0.0838,-0.124871 0.0859,-0.123046 0.088,-0.121227 0.0921,-0.117584 0.0962,-0.11589 0.0963,-0.113941 0.10032,-0.112246 0.10447,-0.108604 0.10459,-0.106653 0.10863,-0.10496 0.11083,-0.10119 0.10185,-0.08886 0.46461,-0.408106 0.56675,-0.312999 0.0983,-0.0534 0.13443,-0.06946 0.13651,-0.06764 0.14079,-0.06204 0.13897,-0.05997 0.14298,-0.05827 0.14338,-0.05243 0.1474,-0.05073 0.14777,-0.04488 0.14791,-0.04294 0.15206,-0.03929 0.15231,-0.03539 0.15439,-0.03357 0.15477,-0.02773 0.15698,-0.02395 0.15723,-0.02006 0.10888,-0.01103 z"
       id="path591166" />
    <path
       style="color:#000000;fill:#392c2c;stroke-linecap:round;stroke-linejoin:round;stroke-dasharray:2.78637, 1.39318;-inkscape-stroke:none;paint-order:stroke markers fill;fill-opacity:1"
       d="m -234.37687,14.210161 -0.11473,0.01141 a 0.69665967,0.69665967 0 0 0 -0.0174,0.0031 l -0.17477,0.02121 a 0.69665967,0.69665967 0 0 0 -0.0174,0.0031 l -0.17049,0.02679 a 0.69665967,0.69665967 0 0 0 -0.0174,0.0031 l -0.17025,0.03069 a 0.69665967,0.69665967 0 0 0 -0.0174,0.0031 l -0.16998,0.03459 a 0.69665967,0.69665967 0 0 0 -0.0173,0.005 l -0.16583,0.03824 a 0.69665967,0.69665967 0 0 0 -0.0173,0.005 l -0.16557,0.04213 a 0.69665967,0.69665967 0 0 0 -0.0173,0.005 l -0.16337,0.0459 a 0.69665967,0.69665967 0 0 0 -0.0173,0.005 l -0.16104,0.05162 a 0.69665967,0.69665967 0 0 0 -0.0173,0.005 l -0.16078,0.05552 a 0.69665967,0.69665967 0 0 0 -0.0153,0.0049 l -0.15858,0.05929 a 0.69665967,0.69665967 0 0 0 -0.0152,0.0069 l -0.1565,0.06111 a 0.69665967,0.69665967 0 0 0 -0.0172,0.007 l -0.15431,0.06488 a 0.69665967,0.69665967 0 0 0 -0.0152,0.0069 l -0.15197,0.0706 a 0.69665967,0.69665967 0 0 0 -0.0152,0.0069 l -0.14989,0.07242 a 0.69665967,0.69665967 0 0 0 -0.0151,0.0088 l -0.14769,0.0762 a 0.69665967,0.69665967 0 0 0 -0.0151,0.0088 l -0.10401,0.05573 a 0.69659001,0.69659001 0 0 0 -0.27682,0.945838 0.69659001,0.69659001 0 0 0 0.94583,0.276826 l 0.0963,-0.05327 0.13442,-0.06946 0.1347,-0.06556 0.13688,-0.06179 0.13702,-0.05984 0.14117,-0.0562 0.14142,-0.0523 0.14362,-0.04853 0.14571,-0.04671 0.14608,-0.04086 0.15011,-0.03916 0.15036,-0.03527 0.15063,-0.03137 0.15282,-0.0276 0.15503,-0.02383 0.15528,-0.01993 0.10694,-0.0109 a 0.69659001,0.69659001 0 0 0 0.62139,-0.764787 0.69659001,0.69659001 0 0 0 -0.76479,-0.621391 z m 1.53072,0.0018 a 0.69659001,0.69659001 0 0 0 -0.76178,0.623247 0.69659001,0.69659001 0 0 0 0.62519,0.761649 l 0.0532,0.0063 0.15198,0.01943 0.15016,0.02151 0.15053,0.02736 0.14872,0.02943 0.14897,0.03333 0.14534,0.03748 0.14558,0.04138 0.14376,0.04346 0.14208,0.04748 0.14036,0.05151 0.13856,0.05358 0.13881,0.05748 0.13517,0.06163 0.13334,0.06371 0.1336,0.06761 0.12982,0.06981 0.0305,0.01758 a 0.69659001,0.69659001 0 0 0 0.94982,-0.261687 0.69659001,0.69659001 0 0 0 -0.25975,-0.949933 l -0.0385,-0.02097 a 0.69665967,0.69665967 0 0 0 -0.0143,-0.0089 l -0.14605,-0.07854 a 0.69665967,0.69665967 0 0 0 -0.0142,-0.0069 l -0.14774,-0.07451 a 0.69665967,0.69665967 0 0 0 -0.0162,-0.0087 l -0.1494,-0.07049 a 0.69665967,0.69665967 0 0 0 -0.0142,-0.0069 l -0.15127,-0.06841 a 0.69665967,0.69665967 0 0 0 -0.0161,-0.0068 l -0.15296,-0.06439 a 0.69665967,0.69665967 0 0 0 -0.016,-0.0048 l -0.15465,-0.06036 a 0.69665967,0.69665967 0 0 0 -0.0161,-0.0068 l -0.15634,-0.05633 a 0.69665967,0.69665967 0 0 0 -0.0161,-0.0068 l -0.15999,-0.05218 a 0.69665967,0.69665967 0 0 0 -0.016,-0.0048 l -0.15986,-0.05023 a 0.69665967,0.69665967 0 0 0 -0.016,-0.0048 l -0.16143,-0.04426 a 0.69665967,0.69665967 0 0 0 -0.016,-0.0048 l -0.16325,-0.04218 a 0.69665967,0.69665967 0 0 0 -0.0178,-0.0028 l -0.16495,-0.03816 a 0.69665967,0.69665967 0 0 0 -0.0158,-0.0029 l -0.16665,-0.03413 a 0.69665967,0.69665967 0 0 0 -0.0158,-0.0029 l -0.16834,-0.03011 a 0.69665967,0.69665967 0 0 0 -0.0158,-0.0029 l -0.16991,-0.02413 a 0.69665967,0.69665967 0 0 0 -0.0158,-0.0029 l -0.16965,-0.02023 a 0.69665967,0.69665967 0 0 0 -0.0178,-0.0028 z m -5.7003,1.787479 -0.10549,0.09301 a 0.69665967,0.69665967 0 0 0 -0.013,0.01064 l -0.12188,0.111698 a 0.69665967,0.69665967 0 0 0 -0.0109,0.01246 l -0.11981,0.113519 a 0.69665967,0.69665967 0 0 0 -0.011,0.01051 l -0.11565,0.117163 a 0.69665967,0.69665967 0 0 0 -0.0109,0.01246 l -0.11358,0.118985 a 0.69665967,0.69665967 0 0 0 -0.0109,0.01246 l -0.10941,0.122627 a 0.69665967,0.69665967 0 0 0 -0.0109,0.01246 l -0.10735,0.12445 a 0.69665967,0.69665967 0 0 0 -0.0109,0.01246 l -0.10319,0.128092 a 0.69665967,0.69665967 0 0 0 -0.0109,0.01246 l -0.10113,0.129915 a 0.69665967,0.69665967 0 0 0 -0.009,0.0143 l -0.099,0.131736 a 0.69665967,0.69665967 0 0 0 -0.009,0.0143 l -0.095,0.133431 a 0.69665967,0.69665967 0 0 0 -0.009,0.01429 l -0.0909,0.137074 a 0.69665967,0.69665967 0 0 0 -0.0108,0.01441 l -0.0868,0.138769 a 0.69665967,0.69665967 0 0 0 -0.009,0.01429 l -0.0847,0.140587 a 0.69665967,0.69665967 0 0 0 -0.009,0.0143 l -0.0826,0.144361 a 0.69665967,0.69665967 0 0 0 -0.007,0.01416 l -0.0786,0.146056 a 0.69665967,0.69665967 0 0 0 -0.007,0.01416 l -0.0764,0.147874 a 0.69665967,0.69665967 0 0 0 -0.007,0.01416 l -0.005,0.01014 a 0.69659001,0.69659001 0 0 0 0.33084,0.92963 0.69659001,0.69659001 0 0 0 0.92768,-0.330704 l 0.002,-0.0021 0.0658,-0.13152 0.0717,-0.131904 0.0719,-0.128007 0.0778,-0.126435 0.0778,-0.126436 0.082,-0.122791 0.086,-0.121097 0.0881,-0.119279 0.0904,-0.115511 0.0924,-0.113685 0.0963,-0.113941 0.0986,-0.108222 0.10253,-0.108476 0.10277,-0.104577 0.1068,-0.102884 0.10889,-0.101062 0.10002,-0.08678 a 0.69659001,0.69659001 0 0 0 0.065,-0.982888 0.69659001,0.69659001 0 0 0 -0.98288,-0.06498 z m 9.85962,0.01163 a 0.69659001,0.69659001 0 0 0 -0.98152,0.07586 0.69659001,0.69659001 0 0 0 0.076,0.983468 l 0.0269,0.02173 0.1103,0.100446 0.10834,0.100573 0.10463,0.102774 0.10288,0.106802 0.0991,0.109006 0.0972,0.111085 0.0956,0.115106 0.0917,0.115361 0.0899,0.11744 0.0862,0.121592 0.0843,0.121716 0.0807,0.125869 0.0768,0.126122 0.0749,0.128202 0.0733,0.132224 0.0674,0.132608 0.0406,0.08151 a 0.69659001,0.69659001 0 0 0 0.93122,0.322798 0.69659001,0.69659001 0 0 0 0.32281,-0.931225 l -0.0451,-0.091 a 0.69665967,0.69665967 0 0 0 -0.007,-0.0152 l -0.0782,-0.147561 a 0.69665967,0.69665967 0 0 0 -0.007,-0.0152 l -0.0799,-0.145488 a 0.69665967,0.69665967 0 0 0 -0.009,-0.01507 l -0.0837,-0.143285 a 0.69665967,0.69665967 0 0 0 -0.008,-0.01511 l -0.0856,-0.141206 a 0.69665967,0.69665967 0 0 0 -0.009,-0.01507 l -0.0913,-0.138879 a 0.69665967,0.69665967 0 0 0 -0.008,-0.01314 l -0.0931,-0.1368 a 0.69665967,0.69665967 0 0 0 -0.0109,-0.01299 l -0.0949,-0.134727 a 0.69665967,0.69665967 0 0 0 -0.0109,-0.01299 l -0.0987,-0.132516 a 0.69665967,0.69665967 0 0 0 -0.0109,-0.01299 l -0.10228,-0.128371 a 0.69665967,0.69665967 0 0 0 -0.0109,-0.01299 l -0.10605,-0.126168 a 0.69665967,0.69665967 0 0 0 -0.0109,-0.01299 l -0.10792,-0.124089 a 0.69665967,0.69665967 0 0 0 -0.0126,-0.01288 l -0.11156,-0.119936 a 0.69665967,0.69665967 0 0 0 -0.0109,-0.01299 l -0.1134,-0.117859 a 0.69665967,0.69665967 0 0 0 -0.0126,-0.01288 l -0.11588,-0.115738 a 0.69665967,0.69665967 0 0 0 -0.0108,-0.01104 l -0.12093,-0.113453 a 0.69665967,0.69665967 0 0 0 -0.0124,-0.01093 l -0.12068,-0.109554 a 0.69665967,0.69665967 0 0 0 -0.0124,-0.01093 z m -11.40079,3.332266 a 0.69659001,0.69659001 0 0 0 -0.84593,0.503477 l -0.0251,0.09364 a 0.69665967,0.69665967 0 0 0 -0.003,0.01585 l -0.0381,0.164946 a 0.69665967,0.69665967 0 0 0 -0.003,0.0178 l -0.0342,0.164692 a 0.69665967,0.69665967 0 0 0 -0.003,0.0178 l -0.0302,0.166386 a 0.69665967,0.69665967 0 0 0 -0.003,0.0178 l -0.0243,0.167957 a 0.69665967,0.69665967 0 0 0 -0.003,0.0178 l -0.0222,0.169776 a 0.69665967,0.69665967 0 0 0 -8.5e-4,0.01767 l -0.0177,0.171442 a 0.69665967,0.69665967 0 0 0 -9.7e-4,0.01572 l -0.0121,0.173035 a 0.69665967,0.69665967 0 0 0 -8.5e-4,0.01767 l -0.008,0.17278 a 0.69665967,0.69665967 0 0 0 -8.5e-4,0.01767 l -0.004,0.174475 a 0.69665967,0.69665967 0 0 0 -8.5e-4,0.01767 l -3.5e-4,0.174221 a 0.69665967,0.69665967 0 0 0 0.001,0.01754 l 0.005,0.175799 a 0.69665967,0.69665967 0 0 0 -8.5e-4,0.01767 l 0.009,0.175537 a 0.69665967,0.69665967 0 0 0 0.001,0.01754 l 0.0136,0.177226 a 0.69665967,0.69665967 0 0 0 0.003,0.01741 l 0.0174,0.175016 a 0.69665967,0.69665967 0 0 0 0.001,0.01754 l 0.023,0.172696 a 0.69665967,0.69665967 0 0 0 0.003,0.01741 l 0.0142,0.09498 a 0.69659001,0.69659001 0 0 0 0.79538,0.580248 0.69659001,0.69659001 0 0 0 0.58219,-0.795501 l -0.0135,-0.08328 -0.0203,-0.157215 -0.0163,-0.157475 -0.0123,-0.157736 -0.008,-0.159947 -0.004,-0.158257 -2.1e-4,-0.15657 0.003,-0.156811 0.008,-0.155116 0.0115,-0.153421 0.0154,-0.153675 0.0194,-0.151981 0.0213,-0.152104 0.0274,-0.15054 0.0295,-0.148722 0.0335,-0.147027 0.0218,-0.08558 a 0.69659001,0.69659001 0 0 0 -0.50348,-0.845933 z m 12.93156,0.02627 a 0.69659001,0.69659001 0 0 0 -0.49847,0.84875 l 0.005,0.01728 0.0353,0.150364 0.0294,0.150749 0.0295,0.152698 0.0238,0.155024 0.0202,0.155266 0.0163,0.157476 0.0118,0.14994 0.001,0.01754 0.008,0.150201 0.004,0.158258 3.3e-4,0.158518 -0.004,0.154862 -0.009,0.157189 -0.01,0.153291 -0.0154,0.153675 -0.0194,0.151981 -0.0233,0.152235 -0.0256,0.148467 -0.0314,0.148845 -0.0334,0.148976 -0.0375,0.145332 -0.0394,0.145456 -0.0454,0.143892 -0.0474,0.142066 -0.0131,0.03805 a 0.69659001,0.69659001 0 0 0 0.41832,0.890642 0.69659001,0.69659001 0 0 0 0.89259,-0.418447 l 0.0167,-0.04415 a 0.69665967,0.69665967 0 0 0 0.005,-0.01598 l 0.0523,-0.158043 a 0.69665967,0.69665967 0 0 0 0.007,-0.01806 l 0.0483,-0.159737 a 0.69665967,0.69665967 0 0 0 0.005,-0.01598 l 0.0462,-0.161556 a 0.69665967,0.69665967 0 0 0 0.003,-0.01585 l 0.0421,-0.163251 a 0.69665967,0.69665967 0 0 0 0.005,-0.01793 l 0.0364,-0.162873 a 0.69665967,0.69665967 0 0 0 0.004,-0.01788 l 0.0322,-0.166517 a 0.69665967,0.69665967 0 0 0 0.005,-0.01598 l 0.0282,-0.168211 a 0.69665967,0.69665967 0 0 0 0.003,-0.01585 l 0.0261,-0.17003 a 0.69665967,0.69665967 0 0 0 0.003,-0.01585 l 0.0202,-0.169645 a 0.69665967,0.69665967 0 0 0 0.003,-0.0178 l 0.0163,-0.171347 a 0.69665967,0.69665967 0 0 0 8.5e-4,-0.01767 l 0.0143,-0.171216 a 0.69665967,0.69665967 0 0 0 8.5e-4,-0.01767 l 0.008,-0.17278 a 0.69665967,0.69665967 0 0 0 8.5e-4,-0.01767 l 0.004,-0.174476 a 0.69665967,0.69665967 0 0 0 -0.001,-0.01754 l 3.5e-4,-0.174221 a 0.69665967,0.69665967 0 0 0 -0.001,-0.01754 l -0.003,-0.175929 a 0.69665967,0.69665967 0 0 0 -0.001,-0.01754 l -0.01,-0.177487 a 0.69659001,0.69659001 0 0 0 -0.003,-0.0096 0.69659001,0.69659001 0 0 0 0.001,-0.0079 l -0.0135,-0.175277 a 0.69665967,0.69665967 0 0 0 -0.001,-0.01754 l -0.0194,-0.174886 a 0.69665967,0.69665967 0 0 0 -10e-4,-0.01754 l -0.023,-0.172696 a 0.69665967,0.69665967 0 0 0 -10e-4,-0.01754 l -0.0269,-0.172442 a 0.69665967,0.69665967 0 0 0 -0.003,-0.01741 l -0.0307,-0.170238 a 0.69665967,0.69665967 0 0 0 -0.003,-0.01741 l -0.0366,-0.169853 a 0.69665967,0.69665967 0 0 0 -0.003,-0.01546 l -0.0384,-0.167774 a 0.69665967,0.69665967 0 0 0 -0.005,-0.01728 l -0.006,-0.02508 a 0.69659001,0.69659001 0 0 0 -0.8507,-0.498342 z m -13.1217,4.104286 a 0.69659001,0.69659001 0 0 0 -0.41122,0.895899 l 0.0187,0.04771 a 0.69665967,0.69665967 0 0 0 0.005,0.01728 l 0.063,0.15638 a 0.69665967,0.69665967 0 0 0 0.007,0.0152 l 0.0649,0.154301 a 0.69665967,0.69665967 0 0 0 0.007,0.0152 l 0.0705,0.151974 a 0.69665967,0.69665967 0 0 0 0.007,0.01715 l 0.0724,0.149895 a 0.69665967,0.69665967 0 0 0 0.009,0.01507 l 0.0762,0.147692 a 0.69665967,0.69665967 0 0 0 0.007,0.0152 l 0.0819,0.145358 a 0.69665967,0.69665967 0 0 0 0.007,0.0152 l 0.0837,0.143285 a 0.69665967,0.69665967 0 0 0 0.009,0.01507 l 0.0875,0.141082 a 0.69665967,0.69665967 0 0 0 0.009,0.01312 l 0.0894,0.139003 a 0.69665967,0.69665967 0 0 0 0.009,0.01507 l 0.095,0.136676 a 0.69665967,0.69665967 0 0 0 0.009,0.01312 l 0.0969,0.134596 a 0.69665967,0.69665967 0 0 0 0.009,0.01312 l 0.10064,0.132393 a 0.69665967,0.69665967 0 0 0 0.0109,0.01299 l 0.10229,0.128372 a 0.69665967,0.69665967 0 0 0 0.0109,0.01299 l 0.10415,0.126292 a 0.69665967,0.69665967 0 0 0 0.0126,0.01288 l 0.10792,0.124089 a 0.69665967,0.69665967 0 0 0 0.0109,0.01299 l 0.11157,0.119935 a 0.69665967,0.69665967 0 0 0 0.0109,0.01299 l 0.0565,0.05699 a 0.69659001,0.69659001 0 0 0 0.98373,0.01795 0.69659001,0.69659001 0 0 0 0.0178,-0.985678 l -0.0482,-0.04969 -0.10101,-0.108881 -0.0974,-0.113034 -0.0935,-0.113289 -0.0936,-0.115237 -0.088,-0.117564 -0.0882,-0.121461 -0.0823,-0.121847 -0.0807,-0.125868 -0.0787,-0.125999 -0.075,-0.130151 -0.0711,-0.130405 -0.0694,-0.132477 -0.0655,-0.134688 -0.0618,-0.136891 -0.06,-0.138963 -0.0561,-0.139218 -0.0145,-0.04211 a 0.69659001,0.69659001 0 0 0 -0.89589,-0.411227 z m 12.34325,1.117718 a 0.69659001,0.69659001 0 0 0 -0.42748,0.317603 l -0.0212,0.03466 -0.0799,0.124617 -0.0818,0.124741 -0.0841,0.120973 -0.0882,0.117329 -0.0902,0.11746 -0.0943,0.113814 -0.0964,0.111992 -0.0985,0.110169 -0.10058,0.10835 -0.10471,0.104709 -0.10681,0.102881 -0.10901,0.09912 -0.11108,0.09729 -0.11316,0.09547 -0.11536,0.09169 -0.11938,0.09 -0.0785,0.05602 a 0.69659001,0.69659001 0 0 0 -0.1576,0.973281 0.69659001,0.69659001 0 0 0 0.97133,0.157723 l 0.0861,-0.06043 a 0.69665967,0.69665967 0 0 0 0.013,-0.01067 l 0.13057,-0.09856 a 0.69665967,0.69665967 0 0 0 0.0149,-0.0108 l 0.12836,-0.102334 a 0.69665967,0.69665967 0 0 0 0.013,-0.01067 l 0.12617,-0.10611 a 0.69665967,0.69665967 0 0 0 0.013,-0.01067 l 0.12409,-0.107928 a 0.69665967,0.69665967 0 0 0 0.011,-0.01054 l 0.12187,-0.111698 a 0.69665967,0.69665967 0 0 0 0.0129,-0.01259 l 0.11786,-0.113393 a 0.69665967,0.69665967 0 0 0 0.0109,-0.01246 l 0.11566,-0.117164 a 0.69665967,0.69665967 0 0 0 0.013,-0.01067 l 0.1115,-0.120807 a 0.69665967,0.69665967 0 0 0 0.011,-0.01054 l 0.11138,-0.122756 a 0.69665967,0.69665967 0 0 0 0.0109,-0.01246 l 0.1054,-0.124323 a 0.69665967,0.69665967 0 0 0 0.0108,-0.0144 l 0.10527,-0.12627 a 0.69665967,0.69665967 0 0 0 0.009,-0.01429 l 0.10125,-0.127966 a 0.69665967,0.69665967 0 0 0 0.0108,-0.0144 l 0.0971,-0.131609 a 0.69665967,0.69665967 0 0 0 0.009,-0.01429 l 0.095,-0.13343 a 0.69665967,0.69665967 0 0 0 0.0108,-0.0144 l 0.0909,-0.137073 a 0.69665967,0.69665967 0 0 0 0.009,-0.01429 l 0.0887,-0.138892 a 0.69665967,0.69665967 0 0 0 0.009,-0.01429 l 0.0246,-0.04271 a 0.69659001,0.69659001 0 0 0 -0.23855,-0.955232 0.69659001,0.69659001 0 0 0 -0.52776,-0.07905 z m -9.68132,2.088634 a 0.69659001,0.69659001 0 0 0 -0.45108,0.28587 0.69659001,0.69659001 0 0 0 0.16903,0.96956 l 0.006,0.0055 a 0.69665967,0.69665967 0 0 0 0.0143,0.0089 l 0.13708,0.09087 a 0.69665967,0.69665967 0 0 0 0.0123,0.009 l 0.13889,0.0888 a 0.69665967,0.69665967 0 0 0 0.0143,0.0089 l 0.14254,0.08464 a 0.69665967,0.69665967 0 0 0 0.0143,0.0089 l 0.14229,0.08074 a 0.69665967,0.69665967 0 0 0 0.0162,0.0088 l 0.14411,0.07866 a 0.69665967,0.69665967 0 0 0 0.0161,0.0068 l 0.14775,0.07451 a 0.69665967,0.69665967 0 0 0 0.0142,0.0069 l 0.14958,0.07243 a 0.69665967,0.69665967 0 0 0 0.0161,0.0068 l 0.15114,0.06646 a 0.69665967,0.69665967 0 0 0 0.0142,0.0069 l 0.15491,0.06426 a 0.69665967,0.69665967 0 0 0 0.0142,0.0069 l 0.1566,0.06023 a 0.69665967,0.69665967 0 0 0 0.0161,0.0068 l 0.15635,0.05634 a 0.69665967,0.69665967 0 0 0 0.016,0.0049 l 0.15816,0.05426 a 0.69665967,0.69665967 0 0 0 0.016,0.0049 l 0.15974,0.04828 a 0.69665967,0.69665967 0 0 0 0.016,0.0049 l 0.16157,0.04621 a 0.69665967,0.69665967 0 0 0 0.0179,0.0047 l 0.16312,0.04023 a 0.69665967,0.69665967 0 0 0 0.016,0.0049 l 0.16494,0.03816 a 0.69665967,0.69665967 0 0 0 0.0158,0.0029 l 0.11898,0.02354 a 0.69659001,0.69659001 0 0 0 0.81974,-0.544826 0.69659001,0.69659001 0 0 0 -0.54495,-0.821695 l -0.10897,-0.02028 -0.14715,-0.0354 -0.14715,-0.0354 -0.14364,-0.04151 -0.14376,-0.04345 -0.14208,-0.04748 -0.14232,-0.05138 -0.13855,-0.05358 -0.13686,-0.05761 -0.13712,-0.0615 -0.13334,-0.06371 -0.13359,-0.06761 -0.12983,-0.06982 -0.12814,-0.07384 -0.12826,-0.07578 -0.12461,-0.07994 -0.12072,-0.08019 a 0.69659001,0.69659001 0 0 0 -0.52043,-0.116714 z m 6.4868,0.664516 -0.14469,0.0623 -0.13935,0.05412 -0.14324,0.05437 -0.14363,0.04853 -0.14582,0.04476 -0.14596,0.04281 -0.14816,0.03904 -0.15037,0.03527 -0.15257,0.03149 -0.15282,0.0276 -0.15503,0.02383 -0.15528,0.01996 -0.15748,0.0162 -0.15774,0.01231 -0.15994,0.0084 -0.15825,0.0044 -0.0235,-4.7e-4 a 0.69659001,0.69659001 0 0 0 -0.69614,0.699207 0.69659001,0.69659001 0 0 0 0.69909,0.694189 l 0.0333,-1.68e-4 a 0.69665967,0.69665967 0 0 0 0.0177,8.49e-4 l 0.17579,-0.0056 a 0.69665967,0.69665967 0 0 0 0.0176,-0.0011 l 0.17554,-0.0095 a 0.69665967,0.69665967 0 0 0 0.0176,-0.0011 l 0.17722,-0.01358 a 0.69665967,0.69665967 0 0 0 0.0176,-0.0011 l 0.17503,-0.01735 a 0.69665967,0.69665967 0 0 0 0.0174,-0.0031 l 0.17269,-0.02303 a 0.69665967,0.69665967 0 0 0 0.0176,-0.0011 l 0.17243,-0.02693 a 0.69665967,0.69665967 0 0 0 0.0174,-0.0031 l 0.17024,-0.03069 a 0.69665967,0.69665967 0 0 0 0.0174,-0.0031 l 0.16805,-0.03447 a 0.69665967,0.69665967 0 0 0 0.0173,-0.005 l 0.16779,-0.03836 a 0.69665967,0.69665967 0 0 0 0.0173,-0.005 l 0.16557,-0.04213 a 0.69665967,0.69665967 0 0 0 0.0153,-0.0049 l 0.16519,-0.04798 a 0.69665967,0.69665967 0 0 0 0.0153,-0.0049 l 0.16312,-0.0498 a 0.69665967,0.69665967 0 0 0 0.0153,-0.0049 l 0.16079,-0.05552 a 0.69665967,0.69665967 0 0 0 0.0153,-0.0049 l 0.15858,-0.05929 a 0.69665967,0.69665967 0 0 0 0.0172,-0.007 l 0.1565,-0.06111 a 0.69665967,0.69665967 0 0 0 0.0152,-0.0069 l 0.15236,-0.06476 a 0.69659001,0.69659001 0 0 0 0.36694,-0.914536 0.69659001,0.69659001 0 0 0 -0.91453,-0.366948 z"
       id="path591158" />
  </g>
  <g
     inkscape:groupmode="layer"
     id="layer14"
     inkscape:label="Layer 5"
     style="display:inline">
    <path
       style="color:#000000;fill:#503e3e;fill-opacity:1;stroke-width:1.39318;stroke-linecap:round;stroke-linejoin:round;stroke-dasharray:2.78637, 1.39318;-inkscape-stroke:none;paint-order:stroke markers fill"
       d="M 14.50077,7.236811 A 6.8492479,6.8492479 0 0 1 8.11255,14.517954 6.8492479,6.8492479 0 0 1 0.83141,8.129732 6.8492479,6.8492479 0 0 1 7.21962,0.848591 a 6.8492479,6.8492479 0 0 1 7.28115,6.38822 z"
       id="path591160" />
  </g>
  <g
     inkscape:groupmode="layer"
     id="layer13"
     inkscape:label="Layer 4"
     style="display:inline">
    <path
       style="color:#000000;fill:#181313;fill-opacity:1;stroke:none;-inkscape-stroke:none;paint-order:markers stroke fill"
       d="m 2.55313,3.20047 c -2.47211,2.817639 -2.19072,7.125183 0.62693,9.597301 2.81765,2.472111 7.12665,2.192017 9.59876,-0.625637 C 15.25093,9.354481 14.96937,5.044178 12.15173,2.572074 9.33407,0.099977 5.02524,0.382824 2.55313,3.20047 Z M 3.62635,4.142074 C 5.58916,1.904909 8.97296,1.682495 11.21012,3.645299 13.44728,5.608095 13.66841,8.99336 11.7056,11.230531 9.74279,13.467695 6.35882,13.687364 4.12167,11.724546 1.8845,9.761736 1.66355,6.379231 3.62635,4.142074 Z"
       id="path591150" />
  </g>
  <g
     inkscape:groupmode="layer"
     id="layer12"
     inkscape:label="Layer 3"
     style="display:inline">
    <path
       style="color:#000000;fill:url(#linearGradient66824);stroke-width:1.42891;-inkscape-stroke:none;paint-order:markers stroke fill"
       d="M 11.6813,3.109236 A 6.0879459,6.0879459 0 0 1 12.24252,11.700579 6.0879459,6.0879459 0 0 1 3.65117,12.26179 6.0879459,6.0879459 0 0 1 3.08997,3.670446 6.0879459,6.0879459 0 0 1 11.6813,3.109236 Z"
       id="path591152" />
  </g>
  <g
     inkscape:groupmode="layer"
     id="layer11"
     inkscape:label="Layer 2"
     style="display:inline">
    <path
       style="color:#000000;fill:#44241d;fill-opacity:1;stroke-linecap:round;stroke-linejoin:round;stroke-miterlimit:0.5;-inkscape-stroke:none;paint-order:stroke fill markers"
       d="m 7.37681,0.875673 a 0.09507151,0.09507151 0 0 0 -0.0957,0.0957 v 4.236328 a 0.09507151,0.09507151 0 0 0 0.0957,0.0957 h 0.60938 a 0.09507151,0.09507151 0 0 0 0.0957,-0.0957 V 0.971373 a 0.09507151,0.09507151 0 0 0 -0.0957,-0.0957 z m 0.0957,0.189453 H 7.89048 V 5.112001 H 7.47251 Z"
       id="path591142" />
    <path
       style="color:#000000;fill:#fb450b;fill-opacity:1;stroke:none;stroke-width:0.190124;stroke-linecap:round;stroke-linejoin:round;stroke-miterlimit:0.5;-inkscape-stroke:none;paint-order:stroke fill markers"
       d="M 7.3769,0.970705 H 7.98633 V 5.207702 H 7.3769 Z"
       id="path591144" />
  </g>
</svg>
